<svg width="199" height="199" viewBox="0 0 199 199" fill="none" xmlns="http://www.w3.org/2000/svg">
<g filter="url(#filter0_d_307_52)">
<rect x="8" y="4" width="183" height="183" rx="10" fill="white"/>
<rect x="8.5" y="4.5" width="182" height="182" rx="9.5" stroke="#E3E3E3"/>
</g>
<path d="M83.7578 161.539H80.7188V160.312H83.7578C84.3464 160.312 84.8229 160.219 85.1875 160.031C85.5521 159.844 85.8177 159.583 85.9844 159.25C86.1562 158.917 86.2422 158.536 86.2422 158.109C86.2422 157.719 86.1562 157.352 85.9844 157.008C85.8177 156.664 85.5521 156.388 85.1875 156.18C84.8229 155.966 84.3464 155.859 83.7578 155.859H81.0703V166H79.5625V154.625H83.7578C84.6172 154.625 85.3438 154.773 85.9375 155.07C86.5312 155.367 86.9818 155.779 87.2891 156.305C87.5964 156.826 87.75 157.422 87.75 158.094C87.75 158.823 87.5964 159.445 87.2891 159.961C86.9818 160.477 86.5312 160.87 85.9375 161.141C85.3438 161.406 84.6172 161.539 83.7578 161.539ZM90.8828 159.352V166H89.4375V157.547H90.8047L90.8828 159.352ZM90.5391 161.453L89.9375 161.43C89.9427 160.852 90.0286 160.318 90.1953 159.828C90.362 159.333 90.5964 158.904 90.8984 158.539C91.2005 158.174 91.5599 157.893 91.9766 157.695C92.3984 157.492 92.8646 157.391 93.375 157.391C93.7917 157.391 94.1667 157.448 94.5 157.562C94.8333 157.672 95.1172 157.849 95.3516 158.094C95.5911 158.339 95.7734 158.656 95.8984 159.047C96.0234 159.432 96.0859 159.904 96.0859 160.461V166H94.6328V160.445C94.6328 160.003 94.5677 159.648 94.4375 159.383C94.3073 159.112 94.1172 158.917 93.8672 158.797C93.6172 158.672 93.3099 158.609 92.9453 158.609C92.5859 158.609 92.2578 158.685 91.9609 158.836C91.6693 158.987 91.4167 159.195 91.2031 159.461C90.9948 159.727 90.8307 160.031 90.7109 160.375C90.5964 160.714 90.5391 161.073 90.5391 161.453ZM101.789 166.156C101.201 166.156 100.667 166.057 100.188 165.859C99.7135 165.656 99.3047 165.372 98.9609 165.008C98.6224 164.643 98.362 164.211 98.1797 163.711C97.9974 163.211 97.9062 162.664 97.9062 162.07V161.742C97.9062 161.055 98.0078 160.443 98.2109 159.906C98.4141 159.365 98.6901 158.906 99.0391 158.531C99.388 158.156 99.7839 157.872 100.227 157.68C100.669 157.487 101.128 157.391 101.602 157.391C102.206 157.391 102.727 157.495 103.164 157.703C103.607 157.911 103.969 158.203 104.25 158.578C104.531 158.948 104.74 159.385 104.875 159.891C105.01 160.391 105.078 160.938 105.078 161.531V162.18H98.7656V161H103.633V160.891C103.612 160.516 103.534 160.151 103.398 159.797C103.268 159.443 103.06 159.151 102.773 158.922C102.487 158.693 102.096 158.578 101.602 158.578C101.273 158.578 100.971 158.648 100.695 158.789C100.419 158.924 100.182 159.128 99.9844 159.398C99.7865 159.669 99.6328 160 99.5234 160.391C99.4141 160.781 99.3594 161.232 99.3594 161.742V162.07C99.3594 162.471 99.4141 162.849 99.5234 163.203C99.638 163.552 99.8021 163.859 100.016 164.125C100.234 164.391 100.497 164.599 100.805 164.75C101.117 164.901 101.471 164.977 101.867 164.977C102.378 164.977 102.81 164.872 103.164 164.664C103.518 164.456 103.828 164.177 104.094 163.828L104.969 164.523C104.786 164.799 104.555 165.062 104.273 165.312C103.992 165.562 103.646 165.766 103.234 165.922C102.828 166.078 102.346 166.156 101.789 166.156ZM111.938 164.047V157.547H113.391V166H112.008L111.938 164.047ZM112.211 162.266L112.812 162.25C112.812 162.812 112.753 163.333 112.633 163.812C112.518 164.286 112.331 164.698 112.07 165.047C111.81 165.396 111.469 165.669 111.047 165.867C110.625 166.06 110.112 166.156 109.508 166.156C109.096 166.156 108.719 166.096 108.375 165.977C108.036 165.857 107.745 165.672 107.5 165.422C107.255 165.172 107.065 164.846 106.93 164.445C106.799 164.044 106.734 163.562 106.734 163V157.547H108.18V163.016C108.18 163.396 108.221 163.711 108.305 163.961C108.393 164.206 108.51 164.401 108.656 164.547C108.807 164.688 108.974 164.786 109.156 164.844C109.344 164.901 109.536 164.93 109.734 164.93C110.349 164.93 110.836 164.812 111.195 164.578C111.555 164.339 111.812 164.018 111.969 163.617C112.13 163.211 112.211 162.76 112.211 162.266ZM120.516 163.758C120.516 163.549 120.469 163.357 120.375 163.18C120.286 162.997 120.102 162.833 119.82 162.688C119.544 162.536 119.128 162.406 118.57 162.297C118.102 162.198 117.677 162.081 117.297 161.945C116.922 161.81 116.602 161.646 116.336 161.453C116.076 161.26 115.875 161.034 115.734 160.773C115.594 160.513 115.523 160.208 115.523 159.859C115.523 159.526 115.596 159.211 115.742 158.914C115.893 158.617 116.104 158.354 116.375 158.125C116.651 157.896 116.982 157.716 117.367 157.586C117.753 157.456 118.182 157.391 118.656 157.391C119.333 157.391 119.911 157.51 120.391 157.75C120.87 157.99 121.237 158.31 121.492 158.711C121.747 159.107 121.875 159.547 121.875 160.031H120.43C120.43 159.797 120.359 159.57 120.219 159.352C120.083 159.128 119.883 158.943 119.617 158.797C119.357 158.651 119.036 158.578 118.656 158.578C118.255 158.578 117.93 158.641 117.68 158.766C117.435 158.885 117.255 159.039 117.141 159.227C117.031 159.414 116.977 159.612 116.977 159.82C116.977 159.977 117.003 160.117 117.055 160.242C117.112 160.362 117.211 160.474 117.352 160.578C117.492 160.677 117.69 160.771 117.945 160.859C118.201 160.948 118.526 161.036 118.922 161.125C119.615 161.281 120.185 161.469 120.633 161.688C121.081 161.906 121.414 162.174 121.633 162.492C121.852 162.81 121.961 163.195 121.961 163.648C121.961 164.018 121.883 164.357 121.727 164.664C121.576 164.971 121.354 165.237 121.062 165.461C120.776 165.68 120.432 165.852 120.031 165.977C119.635 166.096 119.19 166.156 118.695 166.156C117.951 166.156 117.32 166.023 116.805 165.758C116.289 165.492 115.898 165.148 115.633 164.727C115.367 164.305 115.234 163.859 115.234 163.391H116.688C116.708 163.786 116.823 164.102 117.031 164.336C117.24 164.565 117.495 164.729 117.797 164.828C118.099 164.922 118.398 164.969 118.695 164.969C119.091 164.969 119.422 164.917 119.688 164.812C119.958 164.708 120.164 164.565 120.305 164.383C120.445 164.201 120.516 163.992 120.516 163.758Z" fill="#EC6608"/>
<g clip-path="url(#clip0_307_52)">
<path d="M102.351 121C102.079 121.005 101.817 120.905 101.619 120.72C101.512 120.619 101.427 120.499 101.368 120.365C101.309 120.231 101.278 120.087 101.276 119.941V118.258H97.6153V119.925C97.6114 120.206 97.499 120.475 97.3016 120.675C97.1043 120.876 96.8371 120.992 96.5561 121H96.4626C95.0947 120.903 93.7325 120.737 92.3814 120.501L91.7116 120.346C90.093 120.024 88.4959 119.603 86.9295 119.084C86.7916 119.04 86.6647 118.968 86.5572 118.871C86.4497 118.774 86.3642 118.656 86.3064 118.523C86.2448 118.389 86.2129 118.243 86.2129 118.095C86.2129 117.947 86.2448 117.801 86.3064 117.666L86.9451 116.109L83.4403 114.769L82.8016 116.327C82.7458 116.462 82.6632 116.584 82.5587 116.685C82.4543 116.787 82.3303 116.867 82.1941 116.919C82.07 116.935 81.9444 116.935 81.8203 116.919C81.6588 116.914 81.5 116.877 81.353 116.81C79.9374 116.107 78.5642 115.322 77.2407 114.458L76.3216 113.835C75.1727 113.019 74.0702 112.14 73.0193 111.202C72.9062 111.109 72.8143 110.993 72.7498 110.861C72.6854 110.729 72.6498 110.585 72.6455 110.439C72.6439 110.144 72.7554 109.86 72.957 109.644L74.063 108.538L71.4616 105.875L70.2778 107.059C70.0892 107.253 69.8318 107.365 69.5613 107.37H69.4678C69.3252 107.361 69.1862 107.321 69.06 107.254C68.9339 107.187 68.8233 107.094 68.7357 106.981C67.7485 105.84 66.828 104.644 65.9786 103.398C65.8851 103.273 65.8072 103.149 65.7293 103.024C65.6514 102.9 65.6514 102.915 65.6359 102.9C64.7736 101.591 63.9882 100.234 63.2838 98.834C63.2259 98.6986 63.1961 98.5529 63.1961 98.4056C63.1961 98.2584 63.2259 98.1127 63.2838 97.9773C63.336 97.8411 63.4155 97.7171 63.5173 97.6127C63.619 97.5082 63.741 97.4256 63.8757 97.3698L65.4334 96.7155L64.0159 93.3353L62.4582 93.974C62.3262 94.0345 62.1828 94.0664 62.0376 94.0675C61.8872 94.0681 61.7384 94.0362 61.6014 93.974C61.47 93.9105 61.3526 93.8213 61.2563 93.7116C61.1599 93.6018 61.0866 93.4739 61.0407 93.3353C60.5445 91.8702 60.1336 90.3775 59.8101 88.8648C59.8101 88.8648 59.8101 88.7401 59.8101 88.6778V88.5376C59.4284 86.8542 59.1579 85.1474 59.0001 83.4284C58.9894 83.2829 59.0088 83.1367 59.0572 82.9991C59.1056 82.8615 59.1819 82.7353 59.2814 82.6285C59.3808 82.5218 59.5013 82.4367 59.6351 82.3787C59.769 82.3207 59.9134 82.2909 60.0593 82.2913H61.7416V78.6151H60.0749C59.927 78.6202 59.7798 78.5937 59.6429 78.5374C59.506 78.4812 59.3827 78.3965 59.281 78.289C59.1794 78.1815 59.1018 78.0535 59.0534 77.9137C59.0049 77.7739 58.9868 77.6254 59.0001 77.478C59.097 76.1101 59.2634 74.7479 59.4986 73.3969C59.4986 73.1944 59.4986 72.9919 59.6076 72.805V72.6336C59.9271 71.0197 60.3485 69.4277 60.8693 67.8671C60.9153 67.7285 60.9886 67.6006 61.0849 67.4909C61.1813 67.3811 61.2986 67.2919 61.4301 67.2284C61.5726 67.1663 61.7264 67.1345 61.8818 67.135C62.0152 67.1053 62.1535 67.1053 62.2868 67.135L63.8445 67.758L65.2309 64.4557L63.6732 63.8171C63.5385 63.7613 63.4165 63.6786 63.3148 63.5742C63.213 63.4697 63.1335 63.3457 63.0813 63.2096C62.9728 62.9343 62.9728 62.6281 63.0813 62.3528C63.7867 60.9386 64.572 59.5656 65.4334 58.2405L66.0564 57.3215C66.9023 56.1703 67.8124 55.0678 68.7824 54.0192C68.9837 53.7983 69.263 53.6643 69.5613 53.6453C69.8369 53.6484 70.1 53.7604 70.2934 53.9569L71.4616 55.0628L74.1253 52.4615L73.0193 51.2932C72.9117 51.194 72.8258 51.0736 72.7671 50.9396C72.7083 50.8055 72.678 50.6607 72.678 50.5144C72.678 50.368 72.7083 50.2232 72.7671 50.0892C72.8258 49.9551 72.9117 49.8347 73.0193 49.7355C74.1629 48.7476 75.3588 47.822 76.602 46.9628L76.9447 46.7292C78.3022 45.8312 79.7118 45.0146 81.1661 44.2836C81.3148 44.2042 81.4804 44.1615 81.6489 44.159C81.7678 44.1428 81.8883 44.1428 82.0072 44.159C82.1453 44.2111 82.2716 44.2903 82.3786 44.392C82.4856 44.4936 82.5712 44.6157 82.6303 44.7509L83.2689 46.3086L86.6491 44.8911L86.0105 43.3334C85.9489 43.199 85.917 43.0529 85.917 42.905C85.917 42.7572 85.9489 42.6111 86.0105 42.4767C86.0682 42.3423 86.1534 42.2216 86.2608 42.1223C86.3681 42.023 86.4951 41.9474 86.6336 41.9003C88.107 41.4395 89.6047 41.0599 91.1197 40.7632H91.1976H91.4313C93.1213 40.3987 94.8331 40.1437 96.5561 39.9999H96.6339C96.7661 39.996 96.8977 40.0188 97.0208 40.067C97.144 40.1152 97.2561 40.1877 97.3505 40.2803C97.4583 40.3794 97.5445 40.4998 97.6035 40.6338C97.6625 40.7679 97.693 40.9127 97.6932 41.0592V42.7415H101.369V41.0748C101.371 40.7821 101.489 40.502 101.696 40.2959C101.893 40.1066 102.155 40.0005 102.429 39.9999H102.506C103.875 40.095 105.237 40.2614 106.588 40.4984L107.289 40.6542C108.902 40.9754 110.494 41.3968 112.055 41.9159C112.195 41.9607 112.324 42.034 112.434 42.1312C112.544 42.2285 112.632 42.3475 112.694 42.4808C112.755 42.6141 112.789 42.7587 112.791 42.9055C112.794 43.0523 112.766 43.198 112.709 43.3334L112.086 44.8911L115.529 46.2307L116.167 44.673C116.219 44.5358 116.3 44.4115 116.405 44.3092C116.51 44.2069 116.636 44.129 116.775 44.0811C116.894 44.033 117.02 44.0067 117.149 44.0032C117.315 44.0077 117.479 44.0448 117.632 44.1123C119.039 44.8203 120.407 45.6055 121.728 46.4644L122.227 46.8071L122.663 47.0875C123.815 47.933 124.922 48.8376 125.981 49.7978C126.092 49.8918 126.181 50.0087 126.243 50.1404C126.305 50.2721 126.338 50.4156 126.339 50.5611C126.347 50.7081 126.323 50.8551 126.27 50.9922C126.216 51.1292 126.133 51.2531 126.028 51.3555L124.859 52.5394L127.539 55.1251L128.691 54.0192C128.886 53.8255 129.148 53.714 129.423 53.7076C129.566 53.7131 129.706 53.7477 129.834 53.8093C129.963 53.871 130.078 53.9583 130.171 54.0659C131.15 55.2127 132.07 56.4085 132.928 57.6486L133.177 58.0224L133.271 58.1782C134.132 59.4764 134.918 60.8235 135.623 62.2126C135.731 62.4879 135.731 62.7941 135.623 63.0694C135.573 63.2069 135.495 63.3323 135.393 63.437C135.291 63.5418 135.167 63.6235 135.031 63.6769L133.473 64.3155L134.891 67.7113L136.449 67.0571C136.583 67.0335 136.72 67.0335 136.854 67.0571C137.004 67.0564 137.153 67.0883 137.29 67.1505C137.425 67.2074 137.546 67.2924 137.645 67.3998C137.745 67.5073 137.82 67.6347 137.866 67.7736C138.351 69.2474 138.762 70.7447 139.097 72.2598C139.105 72.353 139.105 72.4469 139.097 72.5401C139.502 74.1339 139.803 75.752 140 77.3846C140.049 77.543 140.06 77.7107 140.032 77.8741C140.004 78.0375 139.938 78.1921 139.84 78.3254C139.741 78.4588 139.613 78.5671 139.465 78.6418C139.317 78.7165 139.153 78.7554 138.988 78.7553H137.243V82.3692H138.91C139.056 82.3694 139.201 82.3999 139.335 82.4589C139.469 82.5179 139.589 82.604 139.689 82.7119C139.787 82.8214 139.862 82.9495 139.91 83.0886C139.959 83.2277 139.978 83.375 139.969 83.5219C139.873 84.8907 139.701 86.2531 139.455 87.603L139.315 88.3663C138.993 89.9782 138.577 91.5698 138.069 93.1328C138.02 93.2724 137.944 93.4008 137.845 93.5105C137.746 93.6202 137.626 93.7089 137.492 93.7715C137.355 93.8337 137.206 93.8656 137.056 93.865C136.923 93.8956 136.784 93.8956 136.651 93.865L135.093 93.2419L133.769 96.5598L135.327 97.1828C135.462 97.2387 135.584 97.3213 135.685 97.4257C135.787 97.5302 135.867 97.6542 135.919 97.7903C135.981 97.9247 136.012 98.0709 136.012 98.2187C136.012 98.3666 135.981 98.5127 135.919 98.6471C135.232 100.037 134.462 101.384 133.614 102.681L133.224 103.273C132.328 104.591 131.355 105.855 130.311 107.059C130.216 107.169 130.099 107.259 129.968 107.323C129.836 107.387 129.694 107.424 129.548 107.432C129.272 107.429 129.009 107.317 128.816 107.121L127.632 105.937L124.859 108.538L126.028 109.722C126.133 109.825 126.216 109.949 126.27 110.086C126.323 110.223 126.347 110.37 126.339 110.517C126.334 110.661 126.3 110.804 126.238 110.935C126.176 111.066 126.089 111.183 125.981 111.28C124.848 112.257 123.662 113.173 122.429 114.021L122.04 114.286H121.9C120.595 115.16 119.237 115.95 117.834 116.654C117.685 116.732 117.52 116.774 117.351 116.779C117.228 116.8 117.101 116.8 116.977 116.779C116.842 116.729 116.719 116.652 116.614 116.553C116.51 116.454 116.427 116.335 116.37 116.202L115.716 114.645L112.335 116.062L112.99 117.62C113.048 117.755 113.077 117.901 113.077 118.048C113.077 118.195 113.048 118.341 112.99 118.476C112.927 118.61 112.838 118.73 112.729 118.829C112.619 118.928 112.491 119.004 112.351 119.053C110.885 119.541 109.392 119.947 107.88 120.268H107.803H107.553L106.697 120.439C105.29 120.691 103.87 120.868 102.444 120.969L102.351 121ZM102.351 116.124C102.491 116.124 102.63 116.152 102.76 116.206C102.889 116.261 103.007 116.34 103.105 116.44C103.204 116.54 103.281 116.659 103.334 116.789C103.386 116.919 103.412 117.059 103.41 117.199V118.757C104.376 118.663 105.357 118.523 106.307 118.352L107.133 118.196H107.366H107.585C108.535 117.978 109.563 117.713 110.575 117.402L109.968 115.953C109.914 115.824 109.887 115.686 109.887 115.547C109.887 115.407 109.914 115.269 109.968 115.14C110.021 115.011 110.1 114.894 110.199 114.796C110.298 114.698 110.415 114.62 110.544 114.567L115.887 112.324C116.02 112.294 116.159 112.294 116.292 112.324C116.425 112.293 116.564 112.293 116.697 112.324C116.827 112.376 116.945 112.454 117.044 112.553C117.143 112.652 117.221 112.77 117.273 112.9L117.881 114.349C118.878 113.803 119.859 113.227 120.794 112.604L121.23 112.308C122.087 111.716 122.928 111.093 123.707 110.454L122.601 109.333C122.501 109.236 122.422 109.119 122.368 108.991C122.315 108.862 122.288 108.724 122.289 108.585C122.289 108.446 122.316 108.308 122.369 108.18C122.423 108.051 122.502 107.935 122.601 107.837L126.697 103.741C126.798 103.635 126.919 103.551 127.053 103.494C127.186 103.436 127.331 103.407 127.476 103.407C127.622 103.407 127.766 103.436 127.9 103.494C128.034 103.551 128.155 103.635 128.255 103.741L129.361 104.847C130.093 103.959 130.763 103.055 131.386 102.136L131.76 101.576C132.352 100.672 132.897 99.7375 133.411 98.7717L131.962 98.1798C131.833 98.1268 131.716 98.0489 131.617 97.9505C131.518 97.8521 131.44 97.7352 131.386 97.6063C131.333 97.4775 131.305 97.3394 131.305 97.1999C131.305 97.0604 131.333 96.9222 131.386 96.7934L133.536 91.4038C133.616 91.2098 133.752 91.044 133.927 90.9275C134.102 90.811 134.307 90.7491 134.517 90.7496C134.656 90.7513 134.793 90.7777 134.922 90.8275L136.386 91.4194C136.713 90.2978 136.994 89.1451 137.227 88.008L137.368 87.2759C137.523 86.388 137.648 85.469 137.741 84.55H136.184C136.044 84.5521 135.905 84.5261 135.776 84.4736C135.646 84.4211 135.529 84.3432 135.43 84.2444C135.331 84.1456 135.253 84.028 135.201 83.8985C135.148 83.7691 135.122 83.6304 135.125 83.4907V77.6494C135.122 77.509 135.148 77.3696 135.201 77.2392C135.253 77.1089 135.331 76.9903 135.429 76.8903C135.528 76.7903 135.645 76.7109 135.775 76.6567C135.904 76.6025 136.043 76.5746 136.184 76.5746H137.741C137.618 75.33 137.431 74.0927 137.181 72.8673C137.191 72.7793 137.191 72.6904 137.181 72.6025C137.174 72.5351 137.174 72.4673 137.181 72.3999C136.963 71.4342 136.682 70.4061 136.386 69.4092L134.953 70.0167C134.821 70.0772 134.678 70.109 134.533 70.1101C134.399 70.1322 134.262 70.1322 134.128 70.1101C133.868 69.9998 133.662 69.7932 133.551 69.5338L131.308 64.1753C131.255 64.0465 131.227 63.9084 131.227 63.7689C131.227 63.6294 131.255 63.4912 131.308 63.3624C131.362 63.2336 131.44 63.1166 131.539 63.0182C131.638 62.9198 131.755 62.8419 131.885 62.789L133.333 62.1815C132.804 61.1846 132.212 60.2032 131.589 59.2686L131.339 58.9103C130.732 58.0224 130.093 57.1657 129.439 56.3557L128.333 57.4617C128.233 57.5673 128.112 57.6513 127.978 57.7087C127.844 57.7662 127.7 57.7958 127.554 57.7958C127.408 57.7958 127.264 57.7662 127.13 57.7087C126.996 57.6513 126.876 57.5673 126.775 57.4617L122.663 53.2871C122.557 53.1867 122.473 53.0659 122.416 52.932C122.358 52.7981 122.329 52.6539 122.329 52.5082C122.329 52.3625 122.358 52.2184 122.416 52.0845C122.473 51.9506 122.557 51.8298 122.663 51.7294L123.785 50.6234C123.026 50.0003 122.248 49.4084 121.448 48.8476L121.059 48.5828L120.576 48.2557C119.641 47.6638 118.675 47.0874 117.71 46.5734L117.118 48.0221C117.033 48.2161 116.894 48.3813 116.716 48.4975C116.539 48.6137 116.332 48.6758 116.121 48.6763C115.986 48.6971 115.85 48.6971 115.716 48.6763L110.404 46.4488C110.274 46.3976 110.155 46.3207 110.055 46.2226C109.955 46.1245 109.875 46.0073 109.822 45.8779C109.768 45.7486 109.741 45.6097 109.742 45.4696C109.743 45.3295 109.772 45.191 109.828 45.0624L110.404 43.5982C109.282 43.2711 108.13 42.9751 106.977 42.7571L106.26 42.6169C105.357 42.4611 104.454 42.3365 103.535 42.243V43.8007C103.535 44.0858 103.421 44.3592 103.22 44.5607C103.018 44.7623 102.745 44.8755 102.46 44.8755H96.6339C96.3516 44.8714 96.0822 44.7564 95.884 44.5553C95.6858 44.3541 95.5747 44.0831 95.5747 43.8007V42.243C94.3249 42.3654 93.0823 42.5526 91.8518 42.8038H91.5403C90.5122 43.0219 89.453 43.3023 88.4249 43.6138L89.0324 45.0624C89.0864 45.1906 89.1142 45.3283 89.1142 45.4674C89.1142 45.6066 89.0864 45.7442 89.0324 45.8724C88.9833 46.0017 88.9081 46.1196 88.8117 46.2187C88.7152 46.3178 88.5995 46.3961 88.4716 46.4488L83.0976 48.7386C82.8376 48.8426 82.5476 48.8426 82.2876 48.7386C82.1578 48.6861 82.0398 48.608 81.9408 48.509C81.8418 48.41 81.7637 48.2921 81.7113 48.1623L81.1038 46.7136C80.0912 47.2588 79.1099 47.8507 78.1909 48.4582L78.0818 48.5361L77.8326 48.7074C76.9603 49.2994 76.1191 49.938 75.3091 50.5923L76.4151 51.6982C76.5207 51.7986 76.6047 51.9194 76.6622 52.0533C76.7196 52.1872 76.7492 52.3314 76.7492 52.4771C76.7492 52.6228 76.7196 52.7669 76.6622 52.9008C76.6047 53.0347 76.5207 53.1555 76.4151 53.2559L72.2872 57.3215C72.1868 57.4271 72.066 57.5111 71.9321 57.5686C71.7982 57.626 71.6541 57.6556 71.5084 57.6556C71.3627 57.6556 71.2185 57.626 71.0846 57.5686C70.9507 57.5111 70.8299 57.4271 70.7295 57.3215L69.6236 56.2155C69.0005 56.9788 68.4086 57.7732 67.8634 58.5365L67.2559 59.4244C66.6639 60.3434 66.0876 61.3092 65.5736 62.2905L67.0222 62.8825C67.1513 62.9354 67.2686 63.0133 67.3675 63.1117C67.4664 63.2101 67.5449 63.3271 67.5984 63.4559C67.652 63.5847 67.6796 63.7228 67.6796 63.8623C67.6796 64.0018 67.6521 64.14 67.5986 64.2688L65.4489 69.5961C65.3729 69.7943 65.2382 69.9646 65.0629 70.0843C64.8875 70.204 64.6799 70.2673 64.4676 70.2659C64.329 70.2642 64.1919 70.2378 64.0626 70.188L62.5984 69.5961C62.2713 70.7021 61.9909 71.8548 61.7572 73.0075V73.1944C61.7572 73.3657 61.6793 73.5526 61.6482 73.7396C61.4924 74.643 61.3678 75.5465 61.2743 76.4655H62.832C63.1129 76.4655 63.3824 76.5771 63.581 76.7758C63.7797 76.9744 63.8913 77.2438 63.8913 77.5248V83.3194C63.8913 83.6018 63.7802 83.8728 63.582 84.0739C63.3838 84.275 63.1144 84.3901 62.832 84.3942H61.2743C61.3989 85.6403 61.6014 86.8865 61.8351 88.1015V88.304C61.8351 88.4442 61.8351 88.5221 61.8351 88.5688C62.0532 89.5346 62.3336 90.5782 62.6295 91.5596L64.0782 90.9521C64.2041 90.8899 64.3427 90.8579 64.4832 90.8586C64.6932 90.8581 64.8986 90.92 65.0733 91.0365C65.2481 91.153 65.3842 91.3188 65.4645 91.5128L67.7076 96.8713C67.7611 97.0001 67.7886 97.1383 67.7886 97.2778C67.7886 97.4173 67.761 97.5554 67.7075 97.6842C67.6539 97.813 67.5754 97.93 67.4766 98.0284C67.3777 98.1268 67.2603 98.2047 67.1313 98.2576L65.6826 98.8652C66.2278 99.8776 66.8197 100.859 67.4272 101.778L67.692 102.167C68.2839 103.024 68.9226 103.865 69.5768 104.691L70.6984 103.585C70.7976 103.477 70.918 103.391 71.052 103.333C71.1861 103.274 71.3309 103.244 71.4772 103.244C71.6236 103.244 71.7683 103.274 71.9024 103.333C72.0364 103.391 72.1569 103.477 72.2561 103.585L76.3528 107.682C76.4604 107.781 76.5463 107.901 76.605 108.035C76.6638 108.169 76.6941 108.314 76.6941 108.461C76.6941 108.607 76.6638 108.752 76.605 108.886C76.5463 109.02 76.4604 109.14 76.3528 109.239L75.2468 110.345C75.9945 110.968 76.8045 111.56 77.5678 112.121L78.4557 112.713C79.3903 113.321 80.3561 113.881 81.3218 114.411L81.9137 112.947C81.994 112.753 82.1302 112.587 82.3049 112.47C82.4797 112.354 82.6851 112.292 82.8951 112.292C83.0336 112.294 83.1708 112.321 83.3001 112.37L88.5963 114.551C88.8571 114.658 89.0653 114.864 89.176 115.123C89.2867 115.382 89.2911 115.675 89.1882 115.937L88.5807 117.402C89.7022 117.729 90.8549 118.025 92.0076 118.243L92.7397 118.383C93.6328 118.539 94.5363 118.663 95.4501 118.757V117.199C95.4501 116.914 95.5633 116.641 95.7649 116.439C95.9665 116.238 96.2398 116.124 96.5249 116.124H102.351ZM99.4066 103.382C94.858 103.386 90.4107 102.039 86.6274 99.5142C82.844 96.989 79.8947 93.3984 78.1526 89.1966C76.4105 84.9948 75.9539 80.3707 76.8405 75.9093C77.7272 71.4479 79.9172 67.3498 83.1336 64.1334C86.35 60.9171 90.4481 58.727 94.9095 57.8404C99.3708 56.9538 103.995 57.4104 108.197 59.1525C112.399 60.8946 115.989 63.8439 118.514 67.6272C121.039 71.4105 122.386 75.8579 122.383 80.4065C122.374 86.4976 119.951 92.3368 115.644 96.6438C111.337 100.951 105.498 103.374 99.4066 103.382ZM99.4066 59.7671C95.3195 59.764 91.3233 60.9736 87.9239 63.2427C84.5244 65.5118 81.8746 68.7384 80.3098 72.5142C78.745 76.2899 78.3356 80.445 79.1333 84.4536C79.9311 88.4621 81.9002 92.1439 84.7913 95.0329C87.6825 97.9218 91.3657 99.8881 95.3749 100.683C99.384 101.478 103.539 101.065 107.313 99.4973C111.088 97.9297 114.313 95.2774 116.579 91.8763C118.846 88.4752 120.052 84.4781 120.046 80.3909C120.042 74.9183 117.866 69.6709 113.996 65.8012C110.127 61.9314 104.879 59.7556 99.4066 59.7515V59.7671ZM99.4066 97.9305C94.8305 97.9502 90.4312 96.1648 87.1632 92.9615C87.1248 92.9457 87.0921 92.9185 87.0697 92.8836C85.4292 91.2583 84.1264 89.3245 83.2363 87.1936C82.3462 85.0627 81.8865 82.7768 81.8836 80.4675C81.8807 78.1582 82.3347 75.8711 83.2194 73.738C84.1041 71.6048 85.4021 69.6678 87.0386 68.0384L87.132 67.9605C90.4182 64.7243 94.8495 62.9168 99.4616 62.9314C104.074 62.946 108.493 64.7815 111.759 68.0384L111.837 68.1319C115.071 71.3847 116.897 75.7785 116.92 80.3654C116.943 84.9522 115.162 89.3644 111.962 92.65C111.946 92.6884 111.919 92.721 111.884 92.7434C110.255 94.395 108.311 95.7035 106.168 96.5917C104.026 97.4799 101.726 97.9299 99.4066 97.915V97.9305ZM89.3751 92.0269C91.8852 94.1923 95.0256 95.4922 98.3318 95.7342V83.0546L89.3751 92.0269ZM100.466 95.7342C103.82 95.4956 107.004 94.1663 109.532 91.949L100.466 82.8832V95.7342ZM84.0789 81.4657C84.3209 84.819 85.6498 88.0018 87.8641 90.5315L96.9143 81.4657H84.0789ZM111.027 90.438C113.194 87.9226 114.493 84.7768 114.734 81.4657H102.055L111.027 90.438ZM114.734 79.3317C114.496 76.02 113.196 72.8736 111.027 70.3594L102.055 79.3317H114.734ZM96.9143 79.3317L87.8486 70.2659C85.6476 72.8025 84.3254 75.9824 84.0789 79.3317H96.9143ZM100.466 77.9142L109.532 68.8484C107.004 66.6311 103.82 65.3018 100.466 65.0632V77.9142ZM98.3318 77.7428V65.0632C95.0249 65.3019 91.8834 66.6022 89.3751 68.7705L98.3318 77.7428Z" fill="#616666"/>
<path d="M981.154 -28.5385H-145.058V152.933H981.154V-28.5385Z" stroke="white" stroke-miterlimit="10"/>
</g>
<defs>
<filter id="filter0_d_307_52" x="0" y="0" width="199" height="199" filterUnits="userSpaceOnUse" color-interpolation-filters="sRGB">
<feFlood flood-opacity="0" result="BackgroundImageFix"/>
<feColorMatrix in="SourceAlpha" type="matrix" values="0 0 0 0 0 0 0 0 0 0 0 0 0 0 0 0 0 0 127 0" result="hardAlpha"/>
<feOffset dy="4"/>
<feGaussianBlur stdDeviation="4"/>
<feComposite in2="hardAlpha" operator="out"/>
<feColorMatrix type="matrix" values="0 0 0 0 0 0 0 0 0 0 0 0 0 0 0 0 0 0 0.25 0"/>
<feBlend mode="normal" in2="BackgroundImageFix" result="effect1_dropShadow_307_52"/>
<feBlend mode="normal" in="SourceGraphic" in2="effect1_dropShadow_307_52" result="shape"/>
</filter>
<clipPath id="clip0_307_52">
<rect width="81" height="81" fill="white" transform="translate(59 40)"/>
</clipPath>
</defs>
</svg>
