<svg width="199" height="199" viewBox="0 0 199 199" fill="none" xmlns="http://www.w3.org/2000/svg">
<g filter="url(#filter0_d_307_55)">
<rect x="8" y="4" width="183" height="183" rx="10" fill="white"/>
<rect x="8.5" y="4.5" width="182" height="182" rx="9.5" stroke="#E3E3E3"/>
</g>
<path d="M71.3984 162.383H72.8984C72.8203 163.102 72.6146 163.745 72.2812 164.312C71.9479 164.88 71.4766 165.331 70.8672 165.664C70.2578 165.992 69.4974 166.156 68.5859 166.156C67.9193 166.156 67.3125 166.031 66.7656 165.781C66.224 165.531 65.7578 165.177 65.3672 164.719C64.9766 164.255 64.6745 163.701 64.4609 163.055C64.2526 162.404 64.1484 161.68 64.1484 160.883V159.75C64.1484 158.953 64.2526 158.232 64.4609 157.586C64.6745 156.935 64.9792 156.378 65.375 155.914C65.776 155.451 66.2578 155.094 66.8203 154.844C67.3828 154.594 68.0156 154.469 68.7188 154.469C69.5781 154.469 70.3047 154.63 70.8984 154.953C71.4922 155.276 71.9531 155.724 72.2812 156.297C72.6146 156.865 72.8203 157.523 72.8984 158.273H71.3984C71.3255 157.742 71.1901 157.286 70.9922 156.906C70.7943 156.521 70.513 156.224 70.1484 156.016C69.7839 155.807 69.3073 155.703 68.7188 155.703C68.2135 155.703 67.7682 155.799 67.3828 155.992C67.0026 156.185 66.6823 156.458 66.4219 156.812C66.1667 157.167 65.974 157.591 65.8438 158.086C65.7135 158.581 65.6484 159.13 65.6484 159.734V160.883C65.6484 161.44 65.7057 161.964 65.8203 162.453C65.9401 162.943 66.1198 163.372 66.3594 163.742C66.599 164.112 66.9036 164.404 67.2734 164.617C67.6432 164.826 68.0807 164.93 68.5859 164.93C69.2266 164.93 69.737 164.828 70.1172 164.625C70.4974 164.422 70.7839 164.13 70.9766 163.75C71.1745 163.37 71.3151 162.914 71.3984 162.383ZM79.7188 164.555V160.203C79.7188 159.87 79.651 159.581 79.5156 159.336C79.3854 159.086 79.1875 158.893 78.9219 158.758C78.6562 158.622 78.3281 158.555 77.9375 158.555C77.5729 158.555 77.2526 158.617 76.9766 158.742C76.7057 158.867 76.4922 159.031 76.3359 159.234C76.1849 159.438 76.1094 159.656 76.1094 159.891H74.6641C74.6641 159.589 74.7422 159.289 74.8984 158.992C75.0547 158.695 75.2786 158.427 75.5703 158.188C75.8672 157.943 76.2214 157.75 76.6328 157.609C77.0495 157.464 77.513 157.391 78.0234 157.391C78.638 157.391 79.1797 157.495 79.6484 157.703C80.1224 157.911 80.4922 158.227 80.7578 158.648C81.0286 159.065 81.1641 159.589 81.1641 160.219V164.156C81.1641 164.438 81.1875 164.737 81.2344 165.055C81.2865 165.372 81.362 165.646 81.4609 165.875V166H79.9531C79.8802 165.833 79.8229 165.612 79.7812 165.336C79.7396 165.055 79.7188 164.794 79.7188 164.555ZM79.9688 160.875L79.9844 161.891H78.5234C78.112 161.891 77.7448 161.924 77.4219 161.992C77.099 162.055 76.8281 162.151 76.6094 162.281C76.3906 162.411 76.224 162.576 76.1094 162.773C75.9948 162.966 75.9375 163.193 75.9375 163.453C75.9375 163.719 75.9974 163.961 76.1172 164.18C76.237 164.398 76.4167 164.573 76.6562 164.703C76.901 164.828 77.2005 164.891 77.5547 164.891C77.9974 164.891 78.388 164.797 78.7266 164.609C79.0651 164.422 79.3333 164.193 79.5312 163.922C79.7344 163.651 79.8438 163.388 79.8594 163.133L80.4766 163.828C80.4401 164.047 80.3411 164.289 80.1797 164.555C80.0182 164.82 79.8021 165.076 79.5312 165.32C79.2656 165.56 78.9479 165.76 78.5781 165.922C78.2135 166.078 77.8021 166.156 77.3438 166.156C76.7708 166.156 76.2682 166.044 75.8359 165.82C75.4089 165.596 75.0755 165.297 74.8359 164.922C74.6016 164.542 74.4844 164.117 74.4844 163.648C74.4844 163.195 74.5729 162.797 74.75 162.453C74.9271 162.104 75.1823 161.815 75.5156 161.586C75.849 161.352 76.25 161.174 76.7188 161.055C77.1875 160.935 77.7109 160.875 78.2891 160.875H79.9688ZM84.875 159.227V166H83.4219V157.547H84.7969L84.875 159.227ZM84.5781 161.453L83.9062 161.43C83.9115 160.852 83.987 160.318 84.1328 159.828C84.2786 159.333 84.4948 158.904 84.7812 158.539C85.0677 158.174 85.4245 157.893 85.8516 157.695C86.2786 157.492 86.7734 157.391 87.3359 157.391C87.7318 157.391 88.0964 157.448 88.4297 157.562C88.763 157.672 89.0521 157.846 89.2969 158.086C89.5417 158.326 89.7318 158.633 89.8672 159.008C90.0026 159.383 90.0703 159.836 90.0703 160.367V166H88.625V160.438C88.625 159.995 88.5495 159.641 88.3984 159.375C88.2526 159.109 88.0443 158.917 87.7734 158.797C87.5026 158.672 87.1849 158.609 86.8203 158.609C86.3932 158.609 86.0365 158.685 85.75 158.836C85.4635 158.987 85.2344 159.195 85.0625 159.461C84.8906 159.727 84.7656 160.031 84.6875 160.375C84.6146 160.714 84.5781 161.073 84.5781 161.453ZM90.0547 160.656L89.0859 160.953C89.0911 160.49 89.1667 160.044 89.3125 159.617C89.4635 159.19 89.6797 158.81 89.9609 158.477C90.2474 158.143 90.599 157.88 91.0156 157.688C91.4323 157.49 91.9089 157.391 92.4453 157.391C92.8984 157.391 93.2995 157.451 93.6484 157.57C94.0026 157.69 94.2995 157.875 94.5391 158.125C94.7839 158.37 94.9688 158.685 95.0938 159.07C95.2188 159.456 95.2812 159.914 95.2812 160.445V166H93.8281V160.43C93.8281 159.956 93.7526 159.589 93.6016 159.328C93.4557 159.062 93.2474 158.878 92.9766 158.773C92.7109 158.664 92.3932 158.609 92.0234 158.609C91.7057 158.609 91.4245 158.664 91.1797 158.773C90.9349 158.883 90.7292 159.034 90.5625 159.227C90.3958 159.414 90.2682 159.63 90.1797 159.875C90.0964 160.12 90.0547 160.38 90.0547 160.656ZM99.0391 157.547V166H97.5859V157.547H99.0391ZM97.4766 155.305C97.4766 155.07 97.5469 154.872 97.6875 154.711C97.8333 154.549 98.0469 154.469 98.3281 154.469C98.6042 154.469 98.8151 154.549 98.9609 154.711C99.112 154.872 99.1875 155.07 99.1875 155.305C99.1875 155.529 99.112 155.721 98.9609 155.883C98.8151 156.039 98.6042 156.117 98.3281 156.117C98.0469 156.117 97.8333 156.039 97.6875 155.883C97.5469 155.721 97.4766 155.529 97.4766 155.305ZM102.805 159.352V166H101.359V157.547H102.727L102.805 159.352ZM102.461 161.453L101.859 161.43C101.865 160.852 101.951 160.318 102.117 159.828C102.284 159.333 102.518 158.904 102.82 158.539C103.122 158.174 103.482 157.893 103.898 157.695C104.32 157.492 104.786 157.391 105.297 157.391C105.714 157.391 106.089 157.448 106.422 157.562C106.755 157.672 107.039 157.849 107.273 158.094C107.513 158.339 107.695 158.656 107.82 159.047C107.945 159.432 108.008 159.904 108.008 160.461V166H106.555V160.445C106.555 160.003 106.49 159.648 106.359 159.383C106.229 159.112 106.039 158.917 105.789 158.797C105.539 158.672 105.232 158.609 104.867 158.609C104.508 158.609 104.18 158.685 103.883 158.836C103.591 158.987 103.339 159.195 103.125 159.461C102.917 159.727 102.753 160.031 102.633 160.375C102.518 160.714 102.461 161.073 102.461 161.453ZM111.648 154V166H110.203V154H111.648ZM111.305 161.453L110.703 161.43C110.708 160.852 110.794 160.318 110.961 159.828C111.128 159.333 111.362 158.904 111.664 158.539C111.966 158.174 112.326 157.893 112.742 157.695C113.164 157.492 113.63 157.391 114.141 157.391C114.557 157.391 114.932 157.448 115.266 157.562C115.599 157.672 115.883 157.849 116.117 158.094C116.357 158.339 116.539 158.656 116.664 159.047C116.789 159.432 116.852 159.904 116.852 160.461V166H115.398V160.445C115.398 160.003 115.333 159.648 115.203 159.383C115.073 159.112 114.883 158.917 114.633 158.797C114.383 158.672 114.076 158.609 113.711 158.609C113.352 158.609 113.023 158.685 112.727 158.836C112.435 158.987 112.182 159.195 111.969 159.461C111.76 159.727 111.596 160.031 111.477 160.375C111.362 160.714 111.305 161.073 111.305 161.453ZM118.633 161.867V161.688C118.633 161.078 118.721 160.513 118.898 159.992C119.076 159.466 119.331 159.01 119.664 158.625C119.997 158.234 120.401 157.932 120.875 157.719C121.349 157.5 121.88 157.391 122.469 157.391C123.062 157.391 123.596 157.5 124.07 157.719C124.549 157.932 124.956 158.234 125.289 158.625C125.628 159.01 125.885 159.466 126.062 159.992C126.24 160.513 126.328 161.078 126.328 161.688V161.867C126.328 162.477 126.24 163.042 126.062 163.562C125.885 164.083 125.628 164.539 125.289 164.93C124.956 165.315 124.552 165.617 124.078 165.836C123.609 166.049 123.078 166.156 122.484 166.156C121.891 166.156 121.357 166.049 120.883 165.836C120.409 165.617 120.003 165.315 119.664 164.93C119.331 164.539 119.076 164.083 118.898 163.562C118.721 163.042 118.633 162.477 118.633 161.867ZM120.078 161.688V161.867C120.078 162.289 120.128 162.688 120.227 163.062C120.326 163.432 120.474 163.76 120.672 164.047C120.875 164.333 121.128 164.56 121.43 164.727C121.732 164.888 122.083 164.969 122.484 164.969C122.88 164.969 123.227 164.888 123.523 164.727C123.826 164.56 124.076 164.333 124.273 164.047C124.471 163.76 124.62 163.432 124.719 163.062C124.823 162.688 124.875 162.289 124.875 161.867V161.688C124.875 161.271 124.823 160.878 124.719 160.508C124.62 160.133 124.469 159.802 124.266 159.516C124.068 159.224 123.818 158.995 123.516 158.828C123.219 158.661 122.87 158.578 122.469 158.578C122.073 158.578 121.724 158.661 121.422 158.828C121.125 158.995 120.875 159.224 120.672 159.516C120.474 159.802 120.326 160.133 120.227 160.508C120.128 160.878 120.078 161.271 120.078 161.688ZM124.203 154.156L125.18 154.242C125.18 154.622 125.104 154.956 124.953 155.242C124.802 155.529 124.599 155.75 124.344 155.906C124.094 156.062 123.81 156.141 123.492 156.141C123.227 156.141 123.008 156.104 122.836 156.031C122.664 155.953 122.51 155.867 122.375 155.773C122.24 155.674 122.096 155.589 121.945 155.516C121.799 155.438 121.617 155.398 121.398 155.398C121.18 155.398 120.995 155.482 120.844 155.648C120.698 155.815 120.625 156.021 120.625 156.266L119.648 156.219C119.648 155.839 119.721 155.505 119.867 155.219C120.018 154.927 120.221 154.701 120.477 154.539C120.732 154.372 121.016 154.289 121.328 154.289C121.552 154.289 121.747 154.328 121.914 154.406C122.086 154.479 122.247 154.565 122.398 154.664C122.549 154.758 122.706 154.844 122.867 154.922C123.029 154.995 123.214 155.031 123.422 155.031C123.641 155.031 123.826 154.948 123.977 154.781C124.128 154.609 124.203 154.401 124.203 154.156ZM131.648 166.156C131.06 166.156 130.526 166.057 130.047 165.859C129.573 165.656 129.164 165.372 128.82 165.008C128.482 164.643 128.221 164.211 128.039 163.711C127.857 163.211 127.766 162.664 127.766 162.07V161.742C127.766 161.055 127.867 160.443 128.07 159.906C128.273 159.365 128.549 158.906 128.898 158.531C129.247 158.156 129.643 157.872 130.086 157.68C130.529 157.487 130.987 157.391 131.461 157.391C132.065 157.391 132.586 157.495 133.023 157.703C133.466 157.911 133.828 158.203 134.109 158.578C134.391 158.948 134.599 159.385 134.734 159.891C134.87 160.391 134.938 160.938 134.938 161.531V162.18H128.625V161H133.492V160.891C133.471 160.516 133.393 160.151 133.258 159.797C133.128 159.443 132.919 159.151 132.633 158.922C132.346 158.693 131.956 158.578 131.461 158.578C131.133 158.578 130.831 158.648 130.555 158.789C130.279 158.924 130.042 159.128 129.844 159.398C129.646 159.669 129.492 160 129.383 160.391C129.273 160.781 129.219 161.232 129.219 161.742V162.07C129.219 162.471 129.273 162.849 129.383 163.203C129.497 163.552 129.661 163.859 129.875 164.125C130.094 164.391 130.357 164.599 130.664 164.75C130.977 164.901 131.331 164.977 131.727 164.977C132.237 164.977 132.669 164.872 133.023 164.664C133.378 164.456 133.688 164.177 133.953 163.828L134.828 164.523C134.646 164.799 134.414 165.062 134.133 165.312C133.852 165.562 133.505 165.766 133.094 165.922C132.688 166.078 132.206 166.156 131.648 166.156ZM141.547 163.758C141.547 163.549 141.5 163.357 141.406 163.18C141.318 162.997 141.133 162.833 140.852 162.688C140.576 162.536 140.159 162.406 139.602 162.297C139.133 162.198 138.708 162.081 138.328 161.945C137.953 161.81 137.633 161.646 137.367 161.453C137.107 161.26 136.906 161.034 136.766 160.773C136.625 160.513 136.555 160.208 136.555 159.859C136.555 159.526 136.628 159.211 136.773 158.914C136.924 158.617 137.135 158.354 137.406 158.125C137.682 157.896 138.013 157.716 138.398 157.586C138.784 157.456 139.214 157.391 139.688 157.391C140.365 157.391 140.943 157.51 141.422 157.75C141.901 157.99 142.268 158.31 142.523 158.711C142.779 159.107 142.906 159.547 142.906 160.031H141.461C141.461 159.797 141.391 159.57 141.25 159.352C141.115 159.128 140.914 158.943 140.648 158.797C140.388 158.651 140.068 158.578 139.688 158.578C139.286 158.578 138.961 158.641 138.711 158.766C138.466 158.885 138.286 159.039 138.172 159.227C138.062 159.414 138.008 159.612 138.008 159.82C138.008 159.977 138.034 160.117 138.086 160.242C138.143 160.362 138.242 160.474 138.383 160.578C138.523 160.677 138.721 160.771 138.977 160.859C139.232 160.948 139.557 161.036 139.953 161.125C140.646 161.281 141.216 161.469 141.664 161.688C142.112 161.906 142.445 162.174 142.664 162.492C142.883 162.81 142.992 163.195 142.992 163.648C142.992 164.018 142.914 164.357 142.758 164.664C142.607 164.971 142.385 165.237 142.094 165.461C141.807 165.68 141.464 165.852 141.062 165.977C140.667 166.096 140.221 166.156 139.727 166.156C138.982 166.156 138.352 166.023 137.836 165.758C137.32 165.492 136.93 165.148 136.664 164.727C136.398 164.305 136.266 163.859 136.266 163.391H137.719C137.74 163.786 137.854 164.102 138.062 164.336C138.271 164.565 138.526 164.729 138.828 164.828C139.13 164.922 139.43 164.969 139.727 164.969C140.122 164.969 140.453 164.917 140.719 164.812C140.99 164.708 141.195 164.565 141.336 164.383C141.477 164.201 141.547 163.992 141.547 163.758Z" fill="#EC6608"/>
<g clip-path="url(#clip0_307_55)">
<path d="M61.62 104L61.32 102.71H49.68L48 101.06V82.0602L49.68 80.3902H114.68V61.6702L116.34 60.0002H140.07C142.035 59.9886 143.946 60.644 145.49 61.8592C147.034 63.0744 148.12 64.7776 148.57 66.6902L149.26 69.6202C151.08 77.3481 152 85.2608 152 93.2002V101.06L150.32 102.73H143.68L143.39 104C142.86 106.271 141.578 108.296 139.751 109.745C137.925 111.195 135.662 111.984 133.33 111.984C130.998 111.984 128.735 111.195 126.909 109.745C125.082 108.296 123.8 106.271 123.27 104L123 102.73H82L81.73 104C81.2047 106.273 79.9246 108.301 78.0985 109.754C76.2724 111.206 74.0081 111.996 71.675 111.996C69.3419 111.996 67.0776 111.206 65.2515 109.754C63.4254 108.301 62.1453 106.273 61.62 104ZM63.34 101.73C63.3301 103.382 63.8111 105 64.7219 106.378C65.6327 107.756 66.9323 108.833 68.4559 109.472C69.9796 110.11 71.6585 110.282 73.2799 109.965C74.9012 109.648 76.3919 108.857 77.5629 107.692C78.7339 106.526 79.5324 105.039 79.8571 103.42C80.1819 101.8 80.0182 100.12 79.387 98.5933C78.7557 97.0666 77.6852 95.7618 76.3113 94.8444C74.9374 93.9269 73.322 93.4382 71.67 93.4402C70.5774 93.4388 69.4952 93.6527 68.4853 94.0696C67.4754 94.4865 66.5575 95.0983 65.7839 95.87C65.0104 96.6416 64.3965 97.5581 63.9771 98.567C63.5578 99.5759 63.3413 100.658 63.34 101.75V101.73ZM124.99 101.73C124.98 103.382 125.461 104.999 126.371 106.377C127.282 107.755 128.581 108.832 130.104 109.471C131.627 110.11 133.305 110.282 134.926 109.966C136.547 109.65 138.038 108.859 139.209 107.695C140.381 106.531 141.18 105.045 141.506 103.426C141.832 101.807 141.67 100.127 141.04 98.6002C140.41 97.0734 139.341 95.7679 137.969 94.8492C136.596 93.9306 134.982 93.4402 133.33 93.4402C132.237 93.4388 131.155 93.6527 130.145 94.0696C129.135 94.4865 128.217 95.0983 127.444 95.87C126.67 96.6416 126.056 97.5581 125.637 98.567C125.218 99.5759 125.001 100.658 125 101.75L124.99 101.73ZM61.32 100.73L61.62 99.4402C62.1453 97.1669 63.4254 95.1388 65.2515 93.6866C67.0776 92.2344 69.3419 91.4438 71.675 91.4438C74.0081 91.4438 76.2724 92.2344 78.0985 93.6866C79.9246 95.1388 81.2047 97.1669 81.73 99.4402L82.03 100.73H114.66V82.3502H50V100.76L61.32 100.73ZM122.98 100.73L123.27 99.4402C123.8 97.1693 125.082 95.1445 126.909 93.6949C128.735 92.2454 130.998 91.4565 133.33 91.4565C135.662 91.4565 137.925 92.2454 139.751 93.6949C141.578 95.1445 142.86 97.1693 143.39 99.4402L143.68 100.73H150V93.2002C150 90.1402 149.86 87.0002 149.56 83.8502L149.42 82.3502H134.36C132.355 82.3528 130.43 81.5609 129.008 80.1477C127.585 78.7345 126.781 76.8153 126.77 74.8102V62.0002H116.64V100.76L122.98 100.73ZM149.21 80.3502L148.93 78.4601C148.51 75.6201 147.93 72.7902 147.33 70.0402L146.63 67.1102C146.272 65.644 145.429 64.3418 144.239 63.4143C143.048 62.4869 141.579 61.9886 140.07 62.0002H128.75V74.8102C128.758 76.2919 129.353 77.7101 130.404 78.7541C131.456 79.7981 132.878 80.3828 134.36 80.3801L149.21 80.3502Z" fill="#616666"/>
<path d="M166 16H-557V132.5H166V16Z" stroke="white" stroke-miterlimit="10"/>
</g>
<defs>
<filter id="filter0_d_307_55" x="0" y="0" width="199" height="199" filterUnits="userSpaceOnUse" color-interpolation-filters="sRGB">
<feFlood flood-opacity="0" result="BackgroundImageFix"/>
<feColorMatrix in="SourceAlpha" type="matrix" values="0 0 0 0 0 0 0 0 0 0 0 0 0 0 0 0 0 0 127 0" result="hardAlpha"/>
<feOffset dy="4"/>
<feGaussianBlur stdDeviation="4"/>
<feComposite in2="hardAlpha" operator="out"/>
<feColorMatrix type="matrix" values="0 0 0 0 0 0 0 0 0 0 0 0 0 0 0 0 0 0 0.25 0"/>
<feBlend mode="normal" in2="BackgroundImageFix" result="effect1_dropShadow_307_55"/>
<feBlend mode="normal" in="SourceGraphic" in2="effect1_dropShadow_307_55" result="shape"/>
</filter>
<clipPath id="clip0_307_55">
<rect width="104" height="52" fill="white" transform="translate(48 60)"/>
</clipPath>
</defs>
</svg>
