<svg width="199" height="199" viewBox="0 0 199 199" fill="none" xmlns="http://www.w3.org/2000/svg">
<g filter="url(#filter0_d_307_51)">
<rect x="8" y="4" width="183" height="183" rx="10" fill="white"/>
<rect x="8.5" y="4.5" width="182" height="182" rx="9.5" stroke="#E3E3E3"/>
</g>
<path d="M55.1484 154.625V166H53.6406V154.625H55.1484ZM59.1094 159.227V166H57.6562V157.547H59.0312L59.1094 159.227ZM58.8125 161.453L58.1406 161.43C58.1458 160.852 58.2214 160.318 58.3672 159.828C58.513 159.333 58.7292 158.904 59.0156 158.539C59.3021 158.174 59.6589 157.893 60.0859 157.695C60.513 157.492 61.0078 157.391 61.5703 157.391C61.9661 157.391 62.3307 157.448 62.6641 157.562C62.9974 157.672 63.2865 157.846 63.5312 158.086C63.776 158.326 63.9661 158.633 64.1016 159.008C64.237 159.383 64.3047 159.836 64.3047 160.367V166H62.8594V160.438C62.8594 159.995 62.7839 159.641 62.6328 159.375C62.487 159.109 62.2786 158.917 62.0078 158.797C61.737 158.672 61.4193 158.609 61.0547 158.609C60.6276 158.609 60.2708 158.685 59.9844 158.836C59.6979 158.987 59.4688 159.195 59.2969 159.461C59.125 159.727 59 160.031 58.9219 160.375C58.849 160.714 58.8125 161.073 58.8125 161.453ZM64.2891 160.656L63.3203 160.953C63.3255 160.49 63.401 160.044 63.5469 159.617C63.6979 159.19 63.9141 158.81 64.1953 158.477C64.4818 158.143 64.8333 157.88 65.25 157.688C65.6667 157.49 66.1432 157.391 66.6797 157.391C67.1328 157.391 67.5339 157.451 67.8828 157.57C68.237 157.69 68.5339 157.875 68.7734 158.125C69.0182 158.37 69.2031 158.685 69.3281 159.07C69.4531 159.456 69.5156 159.914 69.5156 160.445V166H68.0625V160.43C68.0625 159.956 67.987 159.589 67.8359 159.328C67.6901 159.062 67.4818 158.878 67.2109 158.773C66.9453 158.664 66.6276 158.609 66.2578 158.609C65.9401 158.609 65.6589 158.664 65.4141 158.773C65.1693 158.883 64.9635 159.034 64.7969 159.227C64.6302 159.414 64.5026 159.63 64.4141 159.875C64.3307 160.12 64.2891 160.38 64.2891 160.656ZM73.1484 159.172V169.25H71.6953V157.547H73.0234L73.1484 159.172ZM78.8438 161.703V161.867C78.8438 162.482 78.7708 163.052 78.625 163.578C78.4792 164.099 78.2656 164.552 77.9844 164.938C77.7083 165.323 77.3672 165.622 76.9609 165.836C76.5547 166.049 76.0885 166.156 75.5625 166.156C75.026 166.156 74.5521 166.068 74.1406 165.891C73.7292 165.714 73.3802 165.456 73.0938 165.117C72.8073 164.779 72.5781 164.372 72.4062 163.898C72.2396 163.424 72.125 162.891 72.0625 162.297V161.422C72.125 160.797 72.2422 160.237 72.4141 159.742C72.5859 159.247 72.8125 158.826 73.0938 158.477C73.3802 158.122 73.7266 157.854 74.1328 157.672C74.5391 157.484 75.0078 157.391 75.5391 157.391C76.0703 157.391 76.5417 157.495 76.9531 157.703C77.3646 157.906 77.7109 158.198 77.9922 158.578C78.2734 158.958 78.4844 159.414 78.625 159.945C78.7708 160.471 78.8438 161.057 78.8438 161.703ZM77.3906 161.867V161.703C77.3906 161.281 77.3464 160.885 77.2578 160.516C77.1693 160.141 77.0312 159.812 76.8438 159.531C76.6615 159.245 76.4271 159.021 76.1406 158.859C75.8542 158.693 75.513 158.609 75.1172 158.609C74.7526 158.609 74.4349 158.672 74.1641 158.797C73.8984 158.922 73.6719 159.091 73.4844 159.305C73.2969 159.513 73.1432 159.753 73.0234 160.023C72.9089 160.289 72.8229 160.565 72.7656 160.852V162.875C72.8698 163.24 73.0156 163.583 73.2031 163.906C73.3906 164.224 73.6406 164.482 73.9531 164.68C74.2656 164.872 74.6589 164.969 75.1328 164.969C75.5234 164.969 75.8594 164.888 76.1406 164.727C76.4271 164.56 76.6615 164.333 76.8438 164.047C77.0312 163.76 77.1693 163.432 77.2578 163.062C77.3464 162.688 77.3906 162.289 77.3906 161.867ZM82.2578 154V166H80.8047V154H82.2578ZM88.0859 166.156C87.4974 166.156 86.9635 166.057 86.4844 165.859C86.0104 165.656 85.6016 165.372 85.2578 165.008C84.9193 164.643 84.6589 164.211 84.4766 163.711C84.2943 163.211 84.2031 162.664 84.2031 162.07V161.742C84.2031 161.055 84.3047 160.443 84.5078 159.906C84.7109 159.365 84.987 158.906 85.3359 158.531C85.6849 158.156 86.0807 157.872 86.5234 157.68C86.9661 157.487 87.4245 157.391 87.8984 157.391C88.5026 157.391 89.0234 157.495 89.4609 157.703C89.9036 157.911 90.2656 158.203 90.5469 158.578C90.8281 158.948 91.0365 159.385 91.1719 159.891C91.3073 160.391 91.375 160.938 91.375 161.531V162.18H85.0625V161H89.9297V160.891C89.9089 160.516 89.8307 160.151 89.6953 159.797C89.5651 159.443 89.3568 159.151 89.0703 158.922C88.7839 158.693 88.3932 158.578 87.8984 158.578C87.5703 158.578 87.2682 158.648 86.9922 158.789C86.7161 158.924 86.4792 159.128 86.2812 159.398C86.0833 159.669 85.9297 160 85.8203 160.391C85.7109 160.781 85.6562 161.232 85.6562 161.742V162.07C85.6562 162.471 85.7109 162.849 85.8203 163.203C85.9349 163.552 86.099 163.859 86.3125 164.125C86.5312 164.391 86.7943 164.599 87.1016 164.75C87.4141 164.901 87.7682 164.977 88.1641 164.977C88.6745 164.977 89.1068 164.872 89.4609 164.664C89.8151 164.456 90.125 164.177 90.3906 163.828L91.2656 164.523C91.0833 164.799 90.8516 165.062 90.5703 165.312C90.2891 165.562 89.9427 165.766 89.5312 165.922C89.125 166.078 88.6432 166.156 88.0859 166.156ZM94.5 159.227V166H93.0469V157.547H94.4219L94.5 159.227ZM94.2031 161.453L93.5312 161.43C93.5365 160.852 93.612 160.318 93.7578 159.828C93.9036 159.333 94.1198 158.904 94.4062 158.539C94.6927 158.174 95.0495 157.893 95.4766 157.695C95.9036 157.492 96.3984 157.391 96.9609 157.391C97.3568 157.391 97.7214 157.448 98.0547 157.562C98.388 157.672 98.6771 157.846 98.9219 158.086C99.1667 158.326 99.3568 158.633 99.4922 159.008C99.6276 159.383 99.6953 159.836 99.6953 160.367V166H98.25V160.438C98.25 159.995 98.1745 159.641 98.0234 159.375C97.8776 159.109 97.6693 158.917 97.3984 158.797C97.1276 158.672 96.8099 158.609 96.4453 158.609C96.0182 158.609 95.6615 158.685 95.375 158.836C95.0885 158.987 94.8594 159.195 94.6875 159.461C94.5156 159.727 94.3906 160.031 94.3125 160.375C94.2396 160.714 94.2031 161.073 94.2031 161.453ZM99.6797 160.656L98.7109 160.953C98.7161 160.49 98.7917 160.044 98.9375 159.617C99.0885 159.19 99.3047 158.81 99.5859 158.477C99.8724 158.143 100.224 157.88 100.641 157.688C101.057 157.49 101.534 157.391 102.07 157.391C102.523 157.391 102.924 157.451 103.273 157.57C103.628 157.69 103.924 157.875 104.164 158.125C104.409 158.37 104.594 158.685 104.719 159.07C104.844 159.456 104.906 159.914 104.906 160.445V166H103.453V160.43C103.453 159.956 103.378 159.589 103.227 159.328C103.081 159.062 102.872 158.878 102.602 158.773C102.336 158.664 102.018 158.609 101.648 158.609C101.331 158.609 101.049 158.664 100.805 158.773C100.56 158.883 100.354 159.034 100.188 159.227C100.021 159.414 99.8932 159.63 99.8047 159.875C99.7214 160.12 99.6797 160.38 99.6797 160.656ZM110.602 166.156C110.013 166.156 109.479 166.057 109 165.859C108.526 165.656 108.117 165.372 107.773 165.008C107.435 164.643 107.174 164.211 106.992 163.711C106.81 163.211 106.719 162.664 106.719 162.07V161.742C106.719 161.055 106.82 160.443 107.023 159.906C107.227 159.365 107.503 158.906 107.852 158.531C108.201 158.156 108.596 157.872 109.039 157.68C109.482 157.487 109.94 157.391 110.414 157.391C111.018 157.391 111.539 157.495 111.977 157.703C112.419 157.911 112.781 158.203 113.062 158.578C113.344 158.948 113.552 159.385 113.688 159.891C113.823 160.391 113.891 160.938 113.891 161.531V162.18H107.578V161H112.445V160.891C112.424 160.516 112.346 160.151 112.211 159.797C112.081 159.443 111.872 159.151 111.586 158.922C111.299 158.693 110.909 158.578 110.414 158.578C110.086 158.578 109.784 158.648 109.508 158.789C109.232 158.924 108.995 159.128 108.797 159.398C108.599 159.669 108.445 160 108.336 160.391C108.227 160.781 108.172 161.232 108.172 161.742V162.07C108.172 162.471 108.227 162.849 108.336 163.203C108.451 163.552 108.615 163.859 108.828 164.125C109.047 164.391 109.31 164.599 109.617 164.75C109.93 164.901 110.284 164.977 110.68 164.977C111.19 164.977 111.622 164.872 111.977 164.664C112.331 164.456 112.641 164.177 112.906 163.828L113.781 164.523C113.599 164.799 113.367 165.062 113.086 165.312C112.805 165.562 112.458 165.766 112.047 165.922C111.641 166.078 111.159 166.156 110.602 166.156ZM117.023 159.352V166H115.578V157.547H116.945L117.023 159.352ZM116.68 161.453L116.078 161.43C116.083 160.852 116.169 160.318 116.336 159.828C116.503 159.333 116.737 158.904 117.039 158.539C117.341 158.174 117.701 157.893 118.117 157.695C118.539 157.492 119.005 157.391 119.516 157.391C119.932 157.391 120.307 157.448 120.641 157.562C120.974 157.672 121.258 157.849 121.492 158.094C121.732 158.339 121.914 158.656 122.039 159.047C122.164 159.432 122.227 159.904 122.227 160.461V166H120.773V160.445C120.773 160.003 120.708 159.648 120.578 159.383C120.448 159.112 120.258 158.917 120.008 158.797C119.758 158.672 119.451 158.609 119.086 158.609C118.727 158.609 118.398 158.685 118.102 158.836C117.81 158.987 117.557 159.195 117.344 159.461C117.135 159.727 116.971 160.031 116.852 160.375C116.737 160.714 116.68 161.073 116.68 161.453ZM127.961 157.547V158.656H123.391V157.547H127.961ZM124.938 155.492H126.383V163.906C126.383 164.193 126.427 164.409 126.516 164.555C126.604 164.701 126.719 164.797 126.859 164.844C127 164.891 127.151 164.914 127.312 164.914C127.432 164.914 127.557 164.904 127.688 164.883C127.823 164.857 127.924 164.836 127.992 164.82L128 166C127.885 166.036 127.734 166.07 127.547 166.102C127.365 166.138 127.143 166.156 126.883 166.156C126.529 166.156 126.203 166.086 125.906 165.945C125.609 165.805 125.372 165.57 125.195 165.242C125.023 164.909 124.938 164.461 124.938 163.898V155.492ZM129.117 161.867V161.688C129.117 161.078 129.206 160.513 129.383 159.992C129.56 159.466 129.815 159.01 130.148 158.625C130.482 158.234 130.885 157.932 131.359 157.719C131.833 157.5 132.365 157.391 132.953 157.391C133.547 157.391 134.081 157.5 134.555 157.719C135.034 157.932 135.44 158.234 135.773 158.625C136.112 159.01 136.37 159.466 136.547 159.992C136.724 160.513 136.812 161.078 136.812 161.688V161.867C136.812 162.477 136.724 163.042 136.547 163.562C136.37 164.083 136.112 164.539 135.773 164.93C135.44 165.315 135.036 165.617 134.562 165.836C134.094 166.049 133.562 166.156 132.969 166.156C132.375 166.156 131.841 166.049 131.367 165.836C130.893 165.617 130.487 165.315 130.148 164.93C129.815 164.539 129.56 164.083 129.383 163.562C129.206 163.042 129.117 162.477 129.117 161.867ZM130.562 161.688V161.867C130.562 162.289 130.612 162.688 130.711 163.062C130.81 163.432 130.958 163.76 131.156 164.047C131.359 164.333 131.612 164.56 131.914 164.727C132.216 164.888 132.568 164.969 132.969 164.969C133.365 164.969 133.711 164.888 134.008 164.727C134.31 164.56 134.56 164.333 134.758 164.047C134.956 163.76 135.104 163.432 135.203 163.062C135.307 162.688 135.359 162.289 135.359 161.867V161.688C135.359 161.271 135.307 160.878 135.203 160.508C135.104 160.133 134.953 159.802 134.75 159.516C134.552 159.224 134.302 158.995 134 158.828C133.703 158.661 133.354 158.578 132.953 158.578C132.557 158.578 132.208 158.661 131.906 158.828C131.609 158.995 131.359 159.224 131.156 159.516C130.958 159.802 130.81 160.133 130.711 160.508C130.612 160.878 130.562 161.271 130.562 161.688ZM143.547 163.758C143.547 163.549 143.5 163.357 143.406 163.18C143.318 162.997 143.133 162.833 142.852 162.688C142.576 162.536 142.159 162.406 141.602 162.297C141.133 162.198 140.708 162.081 140.328 161.945C139.953 161.81 139.633 161.646 139.367 161.453C139.107 161.26 138.906 161.034 138.766 160.773C138.625 160.513 138.555 160.208 138.555 159.859C138.555 159.526 138.628 159.211 138.773 158.914C138.924 158.617 139.135 158.354 139.406 158.125C139.682 157.896 140.013 157.716 140.398 157.586C140.784 157.456 141.214 157.391 141.688 157.391C142.365 157.391 142.943 157.51 143.422 157.75C143.901 157.99 144.268 158.31 144.523 158.711C144.779 159.107 144.906 159.547 144.906 160.031H143.461C143.461 159.797 143.391 159.57 143.25 159.352C143.115 159.128 142.914 158.943 142.648 158.797C142.388 158.651 142.068 158.578 141.688 158.578C141.286 158.578 140.961 158.641 140.711 158.766C140.466 158.885 140.286 159.039 140.172 159.227C140.062 159.414 140.008 159.612 140.008 159.82C140.008 159.977 140.034 160.117 140.086 160.242C140.143 160.362 140.242 160.474 140.383 160.578C140.523 160.677 140.721 160.771 140.977 160.859C141.232 160.948 141.557 161.036 141.953 161.125C142.646 161.281 143.216 161.469 143.664 161.688C144.112 161.906 144.445 162.174 144.664 162.492C144.883 162.81 144.992 163.195 144.992 163.648C144.992 164.018 144.914 164.357 144.758 164.664C144.607 164.971 144.385 165.237 144.094 165.461C143.807 165.68 143.464 165.852 143.062 165.977C142.667 166.096 142.221 166.156 141.727 166.156C140.982 166.156 140.352 166.023 139.836 165.758C139.32 165.492 138.93 165.148 138.664 164.727C138.398 164.305 138.266 163.859 138.266 163.391H139.719C139.74 163.786 139.854 164.102 140.062 164.336C140.271 164.565 140.526 164.729 140.828 164.828C141.13 164.922 141.43 164.969 141.727 164.969C142.122 164.969 142.453 164.917 142.719 164.812C142.99 164.708 143.195 164.565 143.336 164.383C143.477 164.201 143.547 163.992 143.547 163.758Z" fill="#EC6608"/>
<g clip-path="url(#clip0_307_51)">
<path d="M463 8H-260V124.5H463V8Z" stroke="white" stroke-miterlimit="10"/>
<path fill-rule="evenodd" clip-rule="evenodd" d="M159.93 82.21L152 75H119.66L102 58.94V52.16C101.18 52.029 100.35 51.9754 99.52 52C98.6768 51.9741 97.8331 52.0277 97 52.16V59.16L80.12 75H66.12C52.77 75 49.42 75 48.53 74.94L40.11 82.22L40 85L42.56 88.34H46.34V88.63C46.6 92.63 47.42 94.46 47.88 94.46H53.34C53.81 94.46 54.62 92.6 54.88 88.63V88.34H56.31V89.05H57.04V89.35C57.17 93.43 57.1 96.21 55.1 100.46L54.98 100.71L48.76 98.33V98.73L56.7 104L64.3 98.73V98.33L57.88 100.78V100.33C57.93 96.68 57.93 93.02 57.93 89.33V89.02H58.76V88.31H69.25L68.68 92.31L63.44 90.31V90.51L69.94 94.08L76.24 90.47L76.19 98.47L75.19 100.67L68.92 98.28V98.68L76.88 104L84.48 98.73V98.33L78.21 100.72L77.21 98.4V89.06H78V88.35H91.08L90.39 92.35L85.17 90.35V90.55L91.66 94.12L97.88 90.55V90.35L92.66 92.35L91.88 88.35H98.52V89.05H99.34V98.51L98.34 100.71L92 98.33V98.73L100 104L107.6 98.73V98.33L101.33 100.72L100.33 98.4V89.06H101V88.35H109.18L108.49 92.35L103.26 90.35V90.55L109.75 94.12L116 90.53V90.33L110.78 92.33L110 88.39H121.81V89.08H122.43V98.54L121.43 100.74L115.16 98.35V98.75L123.09 104L130.69 98.73V98.33L124.41 100.72L123.41 98.4V89.06H124V88.35H131.82L131.19 92.35L125.95 90.35V90.55L132.45 94.12L138.67 90.55V90.35L133.44 92.35L132.72 88.48L141.98 88.38V89.09H142.79V89.4C142.68 93.2 142.67 96.89 143.86 100.27L144.08 100.88L137.46 98.36V98.76L145.43 104L153.03 98.73V98.33L146.83 100.69L146.69 100.55C143.21 96.93 143.42 93.55 143.69 89.35V89.06H144.42V88.35H145.93V88.64C146.19 92.64 147 94.47 147.47 94.47H153C153.46 94.47 154.28 92.61 154.54 88.64V88.35H158.44L160 86.08L159.93 82.21ZM101 61.9V60.63H101.7L117.45 75H100.62V62.31L100.81 62.23C100.869 62.1974 100.917 62.1494 100.951 62.0913C100.984 62.0332 101.001 61.967 101 61.9ZM98.37 53.54H100.64V57.62H98.37V53.54ZM97.3 60.63H98V61.9C97.9982 61.9696 98.0172 62.0383 98.0546 62.097C98.092 62.1558 98.1461 62.2021 98.21 62.23L98.4 62.31V75H82.2L97.3 60.63ZM49.92 76.29H150.44V77H49.92V76.29ZM132.68 77.6L136.79 83.74H132.68V77.6ZM131.68 78.41V83.74H119.3V78.4L131.68 78.41ZM118.27 83.74H115.79L114.6 78.4H118.26L118.27 83.74ZM113.51 83.74H108.86V78.4H112.32L113.51 83.74ZM107.73 78.4V83.74H92V78.41L107.73 78.4ZM91.18 78.4V83.73H85.36L87.64 78.39L91.18 78.4ZM85.32 78.4L83 83.74H81L81.15 78.4H85.32ZM80.21 83.73H70.48V78.41H80.16L80.21 83.73ZM69.47 78.41V83.74H62.47L66 78.4L69.47 78.41ZM42.18 83.74L47 79.68L46.81 80.55C46.7 81.1 46.59 81.72 46.51 82.4H51.51C51.84 79.23 52.51 79.23 52.73 79.23C52.95 79.23 53.62 79.23 53.95 82.4H55.1C55.1 80.78 54.7 79.31 54.1 78.98L54.24 78.4H63.3L59.67 83.74H42.18ZM53.87 88.74C53.52 91.48 52.93 91.48 52.7 91.48C52.47 91.48 51.89 91.48 51.53 88.74V88.39H53.96L53.87 88.74ZM76.24 90.33L70.93 92.33L70.3 88.72L70.36 88.36H75.58V89.07H76.24V90.33ZM149.33 88.74C148.98 91.48 148.33 91.48 148.16 91.48C147.99 91.48 147.34 91.48 146.99 88.74V88.39H149.42L149.33 88.74ZM157.05 86.92H44.51V85.06H157.05V86.92ZM139.76 83.74L136.25 78.4H147.12L146.92 78.83C146.488 79.9779 146.212 81.1786 146.1 82.4H146.94C147.27 79.23 147.94 79.23 148.16 79.23C148.38 79.23 149.05 79.23 149.38 82.4H154.38C154.327 82.0333 154.277 81.7 154.23 81.4L154.09 80.59L157.89 83.79L139.76 83.74Z" fill="#616666"/>
</g>
<defs>
<filter id="filter0_d_307_51" x="0" y="0" width="199" height="199" filterUnits="userSpaceOnUse" color-interpolation-filters="sRGB">
<feFlood flood-opacity="0" result="BackgroundImageFix"/>
<feColorMatrix in="SourceAlpha" type="matrix" values="0 0 0 0 0 0 0 0 0 0 0 0 0 0 0 0 0 0 127 0" result="hardAlpha"/>
<feOffset dy="4"/>
<feGaussianBlur stdDeviation="4"/>
<feComposite in2="hardAlpha" operator="out"/>
<feColorMatrix type="matrix" values="0 0 0 0 0 0 0 0 0 0 0 0 0 0 0 0 0 0 0.25 0"/>
<feBlend mode="normal" in2="BackgroundImageFix" result="effect1_dropShadow_307_51"/>
<feBlend mode="normal" in="SourceGraphic" in2="effect1_dropShadow_307_51" result="shape"/>
</filter>
<clipPath id="clip0_307_51">
<rect width="120" height="52" fill="white" transform="translate(40 52)"/>
</clipPath>
</defs>
</svg>
