<svg width="199" height="199" viewBox="0 0 199 199" fill="none" xmlns="http://www.w3.org/2000/svg">
<g filter="url(#filter0_d_307_54)">
<rect x="8" y="4" width="183" height="183" rx="10" fill="white"/>
<rect x="8.5" y="4.5" width="182" height="182" rx="9.5" stroke="#E3E3E3"/>
</g>
<path d="M85.6094 161.539H82.5703V160.312H85.6094C86.1979 160.312 86.6745 160.219 87.0391 160.031C87.4036 159.844 87.6693 159.583 87.8359 159.25C88.0078 158.917 88.0938 158.536 88.0938 158.109C88.0938 157.719 88.0078 157.352 87.8359 157.008C87.6693 156.664 87.4036 156.388 87.0391 156.18C86.6745 155.966 86.1979 155.859 85.6094 155.859H82.9219V166H81.4141V154.625H85.6094C86.4688 154.625 87.1953 154.773 87.7891 155.07C88.3828 155.367 88.8333 155.779 89.1406 156.305C89.4479 156.826 89.6016 157.422 89.6016 158.094C89.6016 158.823 89.4479 159.445 89.1406 159.961C88.8333 160.477 88.3828 160.87 87.7891 161.141C87.1953 161.406 86.4688 161.539 85.6094 161.539ZM94.6875 166.156C94.099 166.156 93.5651 166.057 93.0859 165.859C92.612 165.656 92.2031 165.372 91.8594 165.008C91.5208 164.643 91.2604 164.211 91.0781 163.711C90.8958 163.211 90.8047 162.664 90.8047 162.07V161.742C90.8047 161.055 90.9062 160.443 91.1094 159.906C91.3125 159.365 91.5885 158.906 91.9375 158.531C92.2865 158.156 92.6823 157.872 93.125 157.68C93.5677 157.487 94.026 157.391 94.5 157.391C95.1042 157.391 95.625 157.495 96.0625 157.703C96.5052 157.911 96.8672 158.203 97.1484 158.578C97.4297 158.948 97.638 159.385 97.7734 159.891C97.9089 160.391 97.9766 160.938 97.9766 161.531V162.18H91.6641V161H96.5312V160.891C96.5104 160.516 96.4323 160.151 96.2969 159.797C96.1667 159.443 95.9583 159.151 95.6719 158.922C95.3854 158.693 94.9948 158.578 94.5 158.578C94.1719 158.578 93.8698 158.648 93.5938 158.789C93.3177 158.924 93.0807 159.128 92.8828 159.398C92.6849 159.669 92.5312 160 92.4219 160.391C92.3125 160.781 92.2578 161.232 92.2578 161.742V162.07C92.2578 162.471 92.3125 162.849 92.4219 163.203C92.5365 163.552 92.7005 163.859 92.9141 164.125C93.1328 164.391 93.3958 164.599 93.7031 164.75C94.0156 164.901 94.3698 164.977 94.7656 164.977C95.276 164.977 95.7083 164.872 96.0625 164.664C96.4167 164.456 96.7266 164.177 96.9922 163.828L97.8672 164.523C97.6849 164.799 97.4531 165.062 97.1719 165.312C96.8906 165.562 96.5443 165.766 96.1328 165.922C95.7266 166.078 95.2448 166.156 94.6875 166.156ZM103.047 164.969C103.391 164.969 103.708 164.898 104 164.758C104.292 164.617 104.531 164.424 104.719 164.18C104.906 163.93 105.013 163.646 105.039 163.328H106.414C106.388 163.828 106.219 164.294 105.906 164.727C105.599 165.154 105.195 165.5 104.695 165.766C104.195 166.026 103.646 166.156 103.047 166.156C102.411 166.156 101.857 166.044 101.383 165.82C100.914 165.596 100.523 165.289 100.211 164.898C99.9036 164.508 99.6719 164.06 99.5156 163.555C99.3646 163.044 99.2891 162.505 99.2891 161.938V161.609C99.2891 161.042 99.3646 160.505 99.5156 160C99.6719 159.49 99.9036 159.039 100.211 158.648C100.523 158.258 100.914 157.951 101.383 157.727C101.857 157.503 102.411 157.391 103.047 157.391C103.708 157.391 104.286 157.526 104.781 157.797C105.276 158.062 105.664 158.427 105.945 158.891C106.232 159.349 106.388 159.87 106.414 160.453H105.039C105.013 160.104 104.914 159.789 104.742 159.508C104.576 159.227 104.346 159.003 104.055 158.836C103.768 158.664 103.432 158.578 103.047 158.578C102.604 158.578 102.232 158.667 101.93 158.844C101.633 159.016 101.396 159.25 101.219 159.547C101.047 159.839 100.922 160.164 100.844 160.523C100.771 160.878 100.734 161.24 100.734 161.609V161.938C100.734 162.307 100.771 162.672 100.844 163.031C100.917 163.391 101.039 163.716 101.211 164.008C101.388 164.299 101.625 164.534 101.922 164.711C102.224 164.883 102.599 164.969 103.047 164.969ZM102.25 166.078H103.289L103.195 166.492C103.497 166.544 103.771 166.669 104.016 166.867C104.266 167.065 104.391 167.391 104.391 167.844C104.391 168.089 104.339 168.31 104.234 168.508C104.135 168.711 103.987 168.883 103.789 169.023C103.591 169.169 103.344 169.281 103.047 169.359C102.755 169.438 102.414 169.477 102.023 169.477L101.969 168.641C102.208 168.641 102.424 168.615 102.617 168.562C102.815 168.51 102.971 168.427 103.086 168.312C103.206 168.198 103.266 168.049 103.266 167.867C103.266 167.695 103.221 167.56 103.133 167.461C103.044 167.362 102.906 167.286 102.719 167.234C102.536 167.188 102.299 167.154 102.008 167.133L102.25 166.078ZM113.023 164.555V160.203C113.023 159.87 112.956 159.581 112.82 159.336C112.69 159.086 112.492 158.893 112.227 158.758C111.961 158.622 111.633 158.555 111.242 158.555C110.878 158.555 110.557 158.617 110.281 158.742C110.01 158.867 109.797 159.031 109.641 159.234C109.49 159.438 109.414 159.656 109.414 159.891H107.969C107.969 159.589 108.047 159.289 108.203 158.992C108.359 158.695 108.583 158.427 108.875 158.188C109.172 157.943 109.526 157.75 109.938 157.609C110.354 157.464 110.818 157.391 111.328 157.391C111.943 157.391 112.484 157.495 112.953 157.703C113.427 157.911 113.797 158.227 114.062 158.648C114.333 159.065 114.469 159.589 114.469 160.219V164.156C114.469 164.438 114.492 164.737 114.539 165.055C114.591 165.372 114.667 165.646 114.766 165.875V166H113.258C113.185 165.833 113.128 165.612 113.086 165.336C113.044 165.055 113.023 164.794 113.023 164.555ZM113.273 160.875L113.289 161.891H111.828C111.417 161.891 111.049 161.924 110.727 161.992C110.404 162.055 110.133 162.151 109.914 162.281C109.695 162.411 109.529 162.576 109.414 162.773C109.299 162.966 109.242 163.193 109.242 163.453C109.242 163.719 109.302 163.961 109.422 164.18C109.542 164.398 109.721 164.573 109.961 164.703C110.206 164.828 110.505 164.891 110.859 164.891C111.302 164.891 111.693 164.797 112.031 164.609C112.37 164.422 112.638 164.193 112.836 163.922C113.039 163.651 113.148 163.388 113.164 163.133L113.781 163.828C113.745 164.047 113.646 164.289 113.484 164.555C113.323 164.82 113.107 165.076 112.836 165.32C112.57 165.56 112.253 165.76 111.883 165.922C111.518 166.078 111.107 166.156 110.648 166.156C110.076 166.156 109.573 166.044 109.141 165.82C108.714 165.596 108.38 165.297 108.141 164.922C107.906 164.542 107.789 164.117 107.789 163.648C107.789 163.195 107.878 162.797 108.055 162.453C108.232 162.104 108.487 161.815 108.82 161.586C109.154 161.352 109.555 161.174 110.023 161.055C110.492 160.935 111.016 160.875 111.594 160.875H113.273ZM121.664 163.758C121.664 163.549 121.617 163.357 121.523 163.18C121.435 162.997 121.25 162.833 120.969 162.688C120.693 162.536 120.276 162.406 119.719 162.297C119.25 162.198 118.826 162.081 118.445 161.945C118.07 161.81 117.75 161.646 117.484 161.453C117.224 161.26 117.023 161.034 116.883 160.773C116.742 160.513 116.672 160.208 116.672 159.859C116.672 159.526 116.745 159.211 116.891 158.914C117.042 158.617 117.253 158.354 117.523 158.125C117.799 157.896 118.13 157.716 118.516 157.586C118.901 157.456 119.331 157.391 119.805 157.391C120.482 157.391 121.06 157.51 121.539 157.75C122.018 157.99 122.385 158.31 122.641 158.711C122.896 159.107 123.023 159.547 123.023 160.031H121.578C121.578 159.797 121.508 159.57 121.367 159.352C121.232 159.128 121.031 158.943 120.766 158.797C120.505 158.651 120.185 158.578 119.805 158.578C119.404 158.578 119.078 158.641 118.828 158.766C118.583 158.885 118.404 159.039 118.289 159.227C118.18 159.414 118.125 159.612 118.125 159.82C118.125 159.977 118.151 160.117 118.203 160.242C118.26 160.362 118.359 160.474 118.5 160.578C118.641 160.677 118.839 160.771 119.094 160.859C119.349 160.948 119.674 161.036 120.07 161.125C120.763 161.281 121.333 161.469 121.781 161.688C122.229 161.906 122.562 162.174 122.781 162.492C123 162.81 123.109 163.195 123.109 163.648C123.109 164.018 123.031 164.357 122.875 164.664C122.724 164.971 122.503 165.237 122.211 165.461C121.924 165.68 121.581 165.852 121.18 165.977C120.784 166.096 120.339 166.156 119.844 166.156C119.099 166.156 118.469 166.023 117.953 165.758C117.438 165.492 117.047 165.148 116.781 164.727C116.516 164.305 116.383 163.859 116.383 163.391H117.836C117.857 163.786 117.971 164.102 118.18 164.336C118.388 164.565 118.643 164.729 118.945 164.828C119.247 164.922 119.547 164.969 119.844 164.969C120.24 164.969 120.57 164.917 120.836 164.812C121.107 164.708 121.312 164.565 121.453 164.383C121.594 164.201 121.664 163.992 121.664 163.758Z" fill="#EC6608"/>
<g clip-path="url(#clip0_307_54)">
<path d="M78.7879 119C78.5379 119.002 78.29 118.954 78.0584 118.86C77.8269 118.765 77.6163 118.626 77.4388 118.449C77.2614 118.273 77.1205 118.063 77.0244 117.831C76.9282 117.6 76.8788 117.352 76.8788 117.101V108.897H76.6667C73.1775 108.507 69.8689 107.138 67.1212 104.947L66.9545 104.826L61.1363 110.599C60.7759 110.958 60.2884 111.159 59.7803 111.159C59.2722 111.159 58.7847 110.958 58.4242 110.599C58.2479 110.422 58.1079 110.213 58.0124 109.982C57.917 109.751 57.8678 109.504 57.8678 109.254C57.8678 109.004 57.917 108.757 58.0124 108.526C58.1079 108.296 58.2479 108.086 58.4242 107.91L64.2576 102.091L64.1212 101.924C61.9328 99.1982 60.5614 95.9054 60.1667 92.4286V92.216H51.9091C51.6451 92.2396 51.3791 92.2079 51.128 92.1228C50.8769 92.0378 50.6463 91.9012 50.4507 91.7218C50.2551 91.5425 50.099 91.3243 49.9921 91.0811C49.8853 90.8379 49.8301 90.5751 49.8301 90.3093C49.8301 90.0436 49.8853 89.7808 49.9921 89.5376C50.099 89.2944 50.2551 89.0762 50.4507 88.8968C50.6463 88.7175 50.8769 88.5809 51.128 88.4958C51.3791 88.4108 51.6451 88.379 51.9091 88.4027H60.1363V88.19C60.5335 84.7139 61.9046 81.4218 64.0909 78.6948L64.2273 78.5277L58.4242 72.7242C58.0671 72.3654 57.8665 71.8791 57.8665 71.3721C57.8665 70.8651 58.0671 70.3789 58.4242 70.02C58.7885 69.6682 59.2745 69.4716 59.7803 69.4716C60.286 69.4716 60.7721 69.6682 61.1363 70.02L66.9545 75.8387L67.1212 75.7019C69.8722 73.5164 73.1791 72.148 76.6667 71.7519H76.8788V63.5329C76.8788 63.0252 77.0799 62.5383 77.4379 62.1793C77.796 61.8203 78.2815 61.6187 78.7879 61.6187C79.2942 61.6187 79.7798 61.8203 80.1378 62.1793C80.4958 62.5383 80.697 63.0252 80.697 63.5329V71.7215H80.9091C84.3919 72.118 87.6939 73.4865 90.4394 75.6715L90.606 75.8083L96.4394 69.9896C96.802 69.6401 97.2849 69.4442 97.7879 69.4427C98.2914 69.4411 98.7755 69.6374 99.1363 69.9896C99.4935 70.3485 99.6941 70.8348 99.6941 71.3417C99.6941 71.8487 99.4935 72.335 99.1363 72.6938L93.3182 78.4973L93.4394 78.6644C95.6297 81.3905 97.0059 84.6824 97.4091 88.1596V88.3723H105.636C105.9 88.3487 106.166 88.3804 106.417 88.4654C106.668 88.5505 106.899 88.6871 107.095 88.8664C107.29 89.0458 107.446 89.264 107.553 89.5072C107.66 89.7504 107.715 90.0132 107.715 90.2789C107.715 90.5447 107.66 90.8075 107.553 91.0507C107.446 91.2939 107.29 91.5121 107.095 91.6915C106.899 91.8708 106.668 92.0074 106.417 92.0924C106.166 92.1775 105.9 92.2092 105.636 92.1856H97.4394V92.3983C97.0394 95.8764 95.6628 99.1691 93.4697 101.893L93.3485 102.076L99.1666 107.879C99.3449 108.053 99.4865 108.261 99.5828 108.49C99.6791 108.72 99.7282 108.967 99.7273 109.216C99.7273 109.724 99.5261 110.211 99.1681 110.57C98.8101 110.929 98.3245 111.13 97.8182 111.13C97.3121 111.13 96.8271 110.927 96.4697 110.568L90.606 104.795L90.4394 104.917C87.6977 107.108 84.3938 108.478 80.9091 108.867H80.697V117.071C80.699 117.323 80.6511 117.574 80.556 117.808C80.461 118.042 80.3207 118.255 80.1432 118.434C79.9657 118.613 79.7546 118.756 79.522 118.853C79.2893 118.95 79.0398 119 78.7879 119ZM78.7879 75.4285C75.855 75.4465 72.9932 76.3349 70.5634 77.9818C68.1336 79.6287 66.2446 81.9602 65.1346 84.6822C64.0247 87.4043 63.7436 90.3949 64.3268 93.277C64.9099 96.159 66.3312 98.8034 68.4114 100.876C70.4916 102.95 73.1374 104.358 76.0152 104.926C78.8931 105.493 81.8739 105.193 84.5818 104.063C87.2898 102.934 89.6034 101.025 91.231 98.579C92.8586 96.1326 93.7272 93.2577 93.7273 90.3169C93.7112 86.3574 92.1292 82.566 89.3284 79.7747C86.5276 76.9835 82.7368 75.4204 78.7879 75.4285Z" fill="#616666"/>
<path d="M126.394 87.0962C125.89 87.0962 125.407 86.8966 125.049 86.5409C124.692 86.1852 124.489 85.7022 124.485 85.1972V78.8468H124.273C121.645 78.4688 119.157 77.4228 117.045 75.8083L116.879 75.6868L112.333 80.1533C112.156 80.3291 111.945 80.4679 111.713 80.5618C111.482 80.6556 111.234 80.7027 110.985 80.7003C110.482 80.6987 109.999 80.5028 109.636 80.1533C109.279 79.7945 109.079 79.3082 109.079 78.8012C109.079 78.2942 109.279 77.808 109.636 77.4491L114.182 72.9977L114.045 72.8306C112.439 70.7229 111.396 68.2391 111.015 65.6143V65.4168H104.697C104.433 65.4404 104.167 65.4087 103.916 65.3236C103.665 65.2386 103.434 65.102 103.239 64.9227C103.043 64.7433 102.887 64.5251 102.78 64.2819C102.673 64.0387 102.618 63.7759 102.618 63.5102C102.618 63.2444 102.673 62.9816 102.78 62.7384C102.887 62.4952 103.043 62.277 103.239 62.0976C103.434 61.9183 103.665 61.7817 103.916 61.6967C104.167 61.6116 104.433 61.5799 104.697 61.6035H111.015V61.406C111.396 58.7812 112.439 56.2974 114.045 54.1897L114.182 54.0226L109.636 49.5712C109.29 49.2123 109.095 48.7336 109.091 48.2343C109.095 47.7292 109.298 47.2462 109.655 46.8905C110.013 46.5348 110.496 46.3352 111 46.3352C111.251 46.3322 111.5 46.3805 111.732 46.4771C111.964 46.5738 112.174 46.7168 112.348 46.8974L116.894 51.3487L117.061 51.2272C119.172 49.6127 121.66 48.5667 124.288 48.1887H124.5V41.8991C124.5 41.3914 124.701 40.9045 125.059 40.5455C125.417 40.1865 125.903 39.9849 126.409 39.9849C126.915 39.9849 127.401 40.1865 127.759 40.5455C128.117 40.9045 128.318 41.3914 128.318 41.8991V48.2039H128.53C131.157 48.5877 133.643 49.6331 135.758 51.2424L135.924 51.3639L140.394 46.9126C140.662 46.6484 141.001 46.4687 141.37 46.3957C141.739 46.3227 142.121 46.3595 142.469 46.5017C142.817 46.6439 143.116 46.8852 143.329 47.1958C143.542 47.5064 143.659 47.8727 143.667 48.2495C143.663 48.7562 143.461 49.2413 143.106 49.6016L138.561 54.0529L138.697 54.2201C140.303 56.3278 141.346 58.8116 141.727 61.4364V61.6339H148.045C148.309 61.6103 148.575 61.642 148.826 61.727C149.078 61.8121 149.308 61.9487 149.504 62.128C149.699 62.3074 149.856 62.5256 149.962 62.7688C150.069 63.012 150.124 63.2748 150.124 63.5405C150.124 63.8063 150.069 64.0691 149.962 64.3123C149.856 64.5555 149.699 64.7737 149.504 64.9531C149.308 65.1324 149.078 65.269 148.826 65.354C148.575 65.4391 148.309 65.4708 148.045 65.4472H141.773V65.6447C141.391 68.2695 140.348 70.7533 138.742 72.861L138.606 73.0281L143.151 77.4795C143.509 77.8384 143.709 78.3246 143.709 78.8316C143.709 79.3386 143.509 79.8248 143.151 80.1837C142.787 80.5356 142.301 80.7321 141.795 80.7321C141.29 80.7321 140.804 80.5356 140.439 80.1837L135.909 75.702L135.742 75.8235C133.628 77.4327 131.142 78.4781 128.515 78.862H128.303V85.1668C128.305 85.4194 128.257 85.67 128.162 85.904C128.067 86.138 127.927 86.3508 127.749 86.5302C127.572 86.7096 127.361 86.8519 127.128 86.9491C126.895 87.0462 126.646 87.0962 126.394 87.0962ZM126.394 51.926C124.098 51.938 121.857 52.6316 119.954 53.9193C118.051 55.207 116.571 57.031 115.701 59.1612C114.83 61.2915 114.609 63.6325 115.064 65.8888C115.519 68.1452 116.631 70.2158 118.258 71.8393C119.886 73.4629 121.957 74.5667 124.21 75.0114C126.462 75.4561 128.796 75.2218 130.916 74.3381C133.036 73.4544 134.847 71.9608 136.121 70.0459C137.396 68.131 138.076 65.8806 138.076 63.5785C138.076 62.041 137.773 60.5186 137.186 59.0983C136.599 57.6781 135.738 56.3878 134.653 55.3014C133.568 54.2149 132.28 53.3535 130.863 52.7665C129.446 52.1796 127.927 51.8784 126.394 51.8804V51.926Z" fill="#616666"/>
<path d="M493.939 -26.8461H-601.515V150.144H493.939V-26.8461Z" stroke="white" stroke-miterlimit="10"/>
</g>
<defs>
<filter id="filter0_d_307_54" x="0" y="0" width="199" height="199" filterUnits="userSpaceOnUse" color-interpolation-filters="sRGB">
<feFlood flood-opacity="0" result="BackgroundImageFix"/>
<feColorMatrix in="SourceAlpha" type="matrix" values="0 0 0 0 0 0 0 0 0 0 0 0 0 0 0 0 0 0 127 0" result="hardAlpha"/>
<feOffset dy="4"/>
<feGaussianBlur stdDeviation="4"/>
<feComposite in2="hardAlpha" operator="out"/>
<feColorMatrix type="matrix" values="0 0 0 0 0 0 0 0 0 0 0 0 0 0 0 0 0 0 0.25 0"/>
<feBlend mode="normal" in2="BackgroundImageFix" result="effect1_dropShadow_307_54"/>
<feBlend mode="normal" in="SourceGraphic" in2="effect1_dropShadow_307_54" result="shape"/>
</filter>
<clipPath id="clip0_307_54">
<rect width="100" height="79" fill="white" transform="translate(50 40)"/>
</clipPath>
</defs>
</svg>
