<svg width="199" height="199" viewBox="0 0 199 199" fill="none" xmlns="http://www.w3.org/2000/svg">
<g filter="url(#filter0_d_307_53)">
<rect x="8" y="4" width="183" height="183" rx="10" fill="white"/>
<rect x="8.5" y="4.5" width="182" height="182" rx="9.5" stroke="#E3E3E3"/>
</g>
<path d="M78.7031 164.773V166H73.0156V164.773H78.7031ZM73.3125 154.625V166H71.8047V154.625H73.3125ZM79.8281 161.867V161.688C79.8281 161.078 79.9167 160.513 80.0938 159.992C80.2708 159.466 80.526 159.01 80.8594 158.625C81.1927 158.234 81.5964 157.932 82.0703 157.719C82.5443 157.5 83.0755 157.391 83.6641 157.391C84.2578 157.391 84.7917 157.5 85.2656 157.719C85.7448 157.932 86.151 158.234 86.4844 158.625C86.8229 159.01 87.0807 159.466 87.2578 159.992C87.4349 160.513 87.5234 161.078 87.5234 161.688V161.867C87.5234 162.477 87.4349 163.042 87.2578 163.562C87.0807 164.083 86.8229 164.539 86.4844 164.93C86.151 165.315 85.7474 165.617 85.2734 165.836C84.8047 166.049 84.2734 166.156 83.6797 166.156C83.0859 166.156 82.5521 166.049 82.0781 165.836C81.6042 165.617 81.1979 165.315 80.8594 164.93C80.526 164.539 80.2708 164.083 80.0938 163.562C79.9167 163.042 79.8281 162.477 79.8281 161.867ZM81.2734 161.688V161.867C81.2734 162.289 81.3229 162.688 81.4219 163.062C81.5208 163.432 81.6693 163.76 81.8672 164.047C82.0703 164.333 82.3229 164.56 82.625 164.727C82.9271 164.888 83.2786 164.969 83.6797 164.969C84.0755 164.969 84.4219 164.888 84.7188 164.727C85.0208 164.56 85.2708 164.333 85.4688 164.047C85.6667 163.76 85.8151 163.432 85.9141 163.062C86.0182 162.688 86.0703 162.289 86.0703 161.867V161.688C86.0703 161.271 86.0182 160.878 85.9141 160.508C85.8151 160.133 85.6641 159.802 85.4609 159.516C85.263 159.224 85.013 158.995 84.7109 158.828C84.4141 158.661 84.0651 158.578 83.6641 158.578C83.2682 158.578 82.9193 158.661 82.6172 158.828C82.3203 158.995 82.0703 159.224 81.8672 159.516C81.6693 159.802 81.5208 160.133 81.4219 160.508C81.3229 160.878 81.2734 161.271 81.2734 161.688ZM92.7188 164.969C93.0625 164.969 93.3802 164.898 93.6719 164.758C93.9635 164.617 94.2031 164.424 94.3906 164.18C94.5781 163.93 94.6849 163.646 94.7109 163.328H96.0859C96.0599 163.828 95.8906 164.294 95.5781 164.727C95.2708 165.154 94.8672 165.5 94.3672 165.766C93.8672 166.026 93.3177 166.156 92.7188 166.156C92.0833 166.156 91.5286 166.044 91.0547 165.82C90.5859 165.596 90.1953 165.289 89.8828 164.898C89.5755 164.508 89.3438 164.06 89.1875 163.555C89.0365 163.044 88.9609 162.505 88.9609 161.938V161.609C88.9609 161.042 89.0365 160.505 89.1875 160C89.3438 159.49 89.5755 159.039 89.8828 158.648C90.1953 158.258 90.5859 157.951 91.0547 157.727C91.5286 157.503 92.0833 157.391 92.7188 157.391C93.3802 157.391 93.9583 157.526 94.4531 157.797C94.9479 158.062 95.3359 158.427 95.6172 158.891C95.9036 159.349 96.0599 159.87 96.0859 160.453H94.7109C94.6849 160.104 94.5859 159.789 94.4141 159.508C94.2474 159.227 94.0182 159.003 93.7266 158.836C93.4401 158.664 93.1042 158.578 92.7188 158.578C92.276 158.578 91.9036 158.667 91.6016 158.844C91.3047 159.016 91.0677 159.25 90.8906 159.547C90.7188 159.839 90.5938 160.164 90.5156 160.523C90.4427 160.878 90.4062 161.24 90.4062 161.609V161.938C90.4062 162.307 90.4427 162.672 90.5156 163.031C90.5885 163.391 90.7109 163.716 90.8828 164.008C91.0599 164.299 91.2969 164.534 91.5938 164.711C91.8958 164.883 92.2708 164.969 92.7188 164.969ZM102.695 164.555V160.203C102.695 159.87 102.628 159.581 102.492 159.336C102.362 159.086 102.164 158.893 101.898 158.758C101.633 158.622 101.305 158.555 100.914 158.555C100.549 158.555 100.229 158.617 99.9531 158.742C99.6823 158.867 99.4688 159.031 99.3125 159.234C99.1615 159.438 99.0859 159.656 99.0859 159.891H97.6406C97.6406 159.589 97.7188 159.289 97.875 158.992C98.0312 158.695 98.2552 158.427 98.5469 158.188C98.8438 157.943 99.1979 157.75 99.6094 157.609C100.026 157.464 100.49 157.391 101 157.391C101.615 157.391 102.156 157.495 102.625 157.703C103.099 157.911 103.469 158.227 103.734 158.648C104.005 159.065 104.141 159.589 104.141 160.219V164.156C104.141 164.438 104.164 164.737 104.211 165.055C104.263 165.372 104.339 165.646 104.438 165.875V166H102.93C102.857 165.833 102.799 165.612 102.758 165.336C102.716 165.055 102.695 164.794 102.695 164.555ZM102.945 160.875L102.961 161.891H101.5C101.089 161.891 100.721 161.924 100.398 161.992C100.076 162.055 99.8047 162.151 99.5859 162.281C99.3672 162.411 99.2005 162.576 99.0859 162.773C98.9714 162.966 98.9141 163.193 98.9141 163.453C98.9141 163.719 98.974 163.961 99.0938 164.18C99.2135 164.398 99.3932 164.573 99.6328 164.703C99.8776 164.828 100.177 164.891 100.531 164.891C100.974 164.891 101.365 164.797 101.703 164.609C102.042 164.422 102.31 164.193 102.508 163.922C102.711 163.651 102.82 163.388 102.836 163.133L103.453 163.828C103.417 164.047 103.318 164.289 103.156 164.555C102.995 164.82 102.779 165.076 102.508 165.32C102.242 165.56 101.924 165.76 101.555 165.922C101.19 166.078 100.779 166.156 100.32 166.156C99.7474 166.156 99.2448 166.044 98.8125 165.82C98.3854 165.596 98.0521 165.297 97.8125 164.922C97.5781 164.542 97.4609 164.117 97.4609 163.648C97.4609 163.195 97.5495 162.797 97.7266 162.453C97.9036 162.104 98.1589 161.815 98.4922 161.586C98.8255 161.352 99.2266 161.174 99.6953 161.055C100.164 160.935 100.688 160.875 101.266 160.875H102.945ZM109.797 164.969C110.141 164.969 110.458 164.898 110.75 164.758C111.042 164.617 111.281 164.424 111.469 164.18C111.656 163.93 111.763 163.646 111.789 163.328H113.164C113.138 163.828 112.969 164.294 112.656 164.727C112.349 165.154 111.945 165.5 111.445 165.766C110.945 166.026 110.396 166.156 109.797 166.156C109.161 166.156 108.607 166.044 108.133 165.82C107.664 165.596 107.273 165.289 106.961 164.898C106.654 164.508 106.422 164.06 106.266 163.555C106.115 163.044 106.039 162.505 106.039 161.938V161.609C106.039 161.042 106.115 160.505 106.266 160C106.422 159.49 106.654 159.039 106.961 158.648C107.273 158.258 107.664 157.951 108.133 157.727C108.607 157.503 109.161 157.391 109.797 157.391C110.458 157.391 111.036 157.526 111.531 157.797C112.026 158.062 112.414 158.427 112.695 158.891C112.982 159.349 113.138 159.87 113.164 160.453H111.789C111.763 160.104 111.664 159.789 111.492 159.508C111.326 159.227 111.096 159.003 110.805 158.836C110.518 158.664 110.182 158.578 109.797 158.578C109.354 158.578 108.982 158.667 108.68 158.844C108.383 159.016 108.146 159.25 107.969 159.547C107.797 159.839 107.672 160.164 107.594 160.523C107.521 160.878 107.484 161.24 107.484 161.609V161.938C107.484 162.307 107.521 162.672 107.594 163.031C107.667 163.391 107.789 163.716 107.961 164.008C108.138 164.299 108.375 164.534 108.672 164.711C108.974 164.883 109.349 164.969 109.797 164.969ZM109 166.078H110.039L109.945 166.492C110.247 166.544 110.521 166.669 110.766 166.867C111.016 167.065 111.141 167.391 111.141 167.844C111.141 168.089 111.089 168.31 110.984 168.508C110.885 168.711 110.737 168.883 110.539 169.023C110.341 169.169 110.094 169.281 109.797 169.359C109.505 169.438 109.164 169.477 108.773 169.477L108.719 168.641C108.958 168.641 109.174 168.615 109.367 168.562C109.565 168.51 109.721 168.427 109.836 168.312C109.956 168.198 110.016 168.049 110.016 167.867C110.016 167.695 109.971 167.56 109.883 167.461C109.794 167.362 109.656 167.286 109.469 167.234C109.286 167.188 109.049 167.154 108.758 167.133L109 166.078ZM119.773 164.555V160.203C119.773 159.87 119.706 159.581 119.57 159.336C119.44 159.086 119.242 158.893 118.977 158.758C118.711 158.622 118.383 158.555 117.992 158.555C117.628 158.555 117.307 158.617 117.031 158.742C116.76 158.867 116.547 159.031 116.391 159.234C116.24 159.438 116.164 159.656 116.164 159.891H114.719C114.719 159.589 114.797 159.289 114.953 158.992C115.109 158.695 115.333 158.427 115.625 158.188C115.922 157.943 116.276 157.75 116.688 157.609C117.104 157.464 117.568 157.391 118.078 157.391C118.693 157.391 119.234 157.495 119.703 157.703C120.177 157.911 120.547 158.227 120.812 158.648C121.083 159.065 121.219 159.589 121.219 160.219V164.156C121.219 164.438 121.242 164.737 121.289 165.055C121.341 165.372 121.417 165.646 121.516 165.875V166H120.008C119.935 165.833 119.878 165.612 119.836 165.336C119.794 165.055 119.773 164.794 119.773 164.555ZM120.023 160.875L120.039 161.891H118.578C118.167 161.891 117.799 161.924 117.477 161.992C117.154 162.055 116.883 162.151 116.664 162.281C116.445 162.411 116.279 162.576 116.164 162.773C116.049 162.966 115.992 163.193 115.992 163.453C115.992 163.719 116.052 163.961 116.172 164.18C116.292 164.398 116.471 164.573 116.711 164.703C116.956 164.828 117.255 164.891 117.609 164.891C118.052 164.891 118.443 164.797 118.781 164.609C119.12 164.422 119.388 164.193 119.586 163.922C119.789 163.651 119.898 163.388 119.914 163.133L120.531 163.828C120.495 164.047 120.396 164.289 120.234 164.555C120.073 164.82 119.857 165.076 119.586 165.32C119.32 165.56 119.003 165.76 118.633 165.922C118.268 166.078 117.857 166.156 117.398 166.156C116.826 166.156 116.323 166.044 115.891 165.82C115.464 165.596 115.13 165.297 114.891 164.922C114.656 164.542 114.539 164.117 114.539 163.648C114.539 163.195 114.628 162.797 114.805 162.453C114.982 162.104 115.237 161.815 115.57 161.586C115.904 161.352 116.305 161.174 116.773 161.055C117.242 160.935 117.766 160.875 118.344 160.875H120.023ZM120.031 154.156L121.008 154.242C121.008 154.622 120.932 154.956 120.781 155.242C120.63 155.529 120.427 155.75 120.172 155.906C119.922 156.062 119.638 156.141 119.32 156.141C119.055 156.141 118.836 156.104 118.664 156.031C118.492 155.953 118.339 155.867 118.203 155.773C118.068 155.674 117.924 155.589 117.773 155.516C117.628 155.438 117.445 155.398 117.227 155.398C117.008 155.398 116.823 155.482 116.672 155.648C116.526 155.815 116.453 156.021 116.453 156.266L115.477 156.219C115.477 155.839 115.549 155.505 115.695 155.219C115.846 154.927 116.049 154.701 116.305 154.539C116.56 154.372 116.844 154.289 117.156 154.289C117.38 154.289 117.576 154.328 117.742 154.406C117.914 154.479 118.076 154.565 118.227 154.664C118.378 154.758 118.534 154.844 118.695 154.922C118.857 154.995 119.042 155.031 119.25 155.031C119.469 155.031 119.654 154.948 119.805 154.781C119.956 154.609 120.031 154.401 120.031 154.156ZM123.109 161.867V161.688C123.109 161.078 123.198 160.513 123.375 159.992C123.552 159.466 123.807 159.01 124.141 158.625C124.474 158.234 124.878 157.932 125.352 157.719C125.826 157.5 126.357 157.391 126.945 157.391C127.539 157.391 128.073 157.5 128.547 157.719C129.026 157.932 129.432 158.234 129.766 158.625C130.104 159.01 130.362 159.466 130.539 159.992C130.716 160.513 130.805 161.078 130.805 161.688V161.867C130.805 162.477 130.716 163.042 130.539 163.562C130.362 164.083 130.104 164.539 129.766 164.93C129.432 165.315 129.029 165.617 128.555 165.836C128.086 166.049 127.555 166.156 126.961 166.156C126.367 166.156 125.833 166.049 125.359 165.836C124.885 165.617 124.479 165.315 124.141 164.93C123.807 164.539 123.552 164.083 123.375 163.562C123.198 163.042 123.109 162.477 123.109 161.867ZM124.555 161.688V161.867C124.555 162.289 124.604 162.688 124.703 163.062C124.802 163.432 124.951 163.76 125.148 164.047C125.352 164.333 125.604 164.56 125.906 164.727C126.208 164.888 126.56 164.969 126.961 164.969C127.357 164.969 127.703 164.888 128 164.727C128.302 164.56 128.552 164.333 128.75 164.047C128.948 163.76 129.096 163.432 129.195 163.062C129.299 162.688 129.352 162.289 129.352 161.867V161.688C129.352 161.271 129.299 160.878 129.195 160.508C129.096 160.133 128.945 159.802 128.742 159.516C128.544 159.224 128.294 158.995 127.992 158.828C127.695 158.661 127.346 158.578 126.945 158.578C126.549 158.578 126.201 158.661 125.898 158.828C125.602 158.995 125.352 159.224 125.148 159.516C124.951 159.802 124.802 160.133 124.703 160.508C124.604 160.878 124.555 161.271 124.555 161.688Z" fill="#EC6608"/>
<g clip-path="url(#clip0_307_53)">
<path d="M141.585 38.399C141.318 38.1453 140.964 38.0038 140.595 38.0038C140.227 38.0038 139.873 38.1453 139.606 38.399L134.386 43.5386H101.633L60.4525 84.3683C59.989 84.8149 59.6204 85.3505 59.3686 85.9428C59.1168 86.5352 58.9871 87.1723 58.9871 87.8159C58.9871 88.4596 59.1168 89.0967 59.3686 89.689C59.6204 90.2814 59.989 90.817 60.4525 91.2636L89.3269 119.579C90.2635 120.489 91.517 120.998 92.8225 121C94.1457 121.001 95.4172 120.486 96.3659 119.563L136.381 79.069V45.5498L141.585 40.4261C141.718 40.2994 141.823 40.1471 141.896 39.9784C141.968 39.8097 142.005 39.628 142.005 39.4445C142.005 39.261 141.968 39.0793 141.896 38.9106C141.823 38.7419 141.718 38.5896 141.585 38.4629V38.399ZM91.2423 117.616L62.5115 89.3004C62.3097 89.1094 62.149 88.8792 62.0393 88.624C61.9295 88.3687 61.8729 88.0938 61.873 87.8159C61.8726 87.5357 61.929 87.2583 62.0387 87.0004C62.1484 86.7425 62.3093 86.5096 62.5115 86.3156L74.9615 73.9773L106.613 105.166L94.275 117.616C93.8715 118.016 93.3265 118.24 92.7586 118.24C92.1907 118.24 91.6458 118.016 91.2423 117.616ZM133.572 77.9038L108.576 103.187L76.8769 71.9981L102.798 46.3H131.529L124.777 52.9879C123.487 52.1686 121.96 51.8025 120.438 51.9474C118.916 52.0924 117.486 52.7401 116.373 53.7884C115.261 54.8366 114.529 56.2256 114.293 57.7361C114.058 59.2466 114.332 60.7925 115.073 62.1297C115.814 63.467 116.979 64.5193 118.384 65.1207C119.79 65.722 121.356 65.8381 122.834 65.4506C124.313 65.063 125.621 64.194 126.551 62.9806C127.481 61.7672 127.98 60.2787 127.97 58.75C127.971 57.3882 127.559 56.0581 126.789 54.9352L133.604 48.2473L133.572 77.9038ZM125.129 58.75C125.144 59.5898 124.91 60.4153 124.455 61.1213C124 61.8273 123.345 62.3818 122.574 62.7143C121.802 63.0467 120.949 63.1419 120.124 62.9878C119.298 62.8337 118.537 62.4373 117.937 61.8491C117.338 61.2608 116.927 60.5074 116.757 59.6848C116.587 58.8622 116.666 58.0076 116.984 57.2301C117.302 56.4525 117.844 55.7872 118.541 55.3188C119.238 54.8504 120.059 54.6001 120.899 54.6C121.528 54.6048 122.149 54.7464 122.718 55.015L119.909 57.7763C119.649 58.0367 119.503 58.3898 119.503 58.758C119.503 59.1261 119.649 59.4792 119.909 59.7396C120.177 59.992 120.531 60.1344 120.899 60.1386C121.268 60.1376 121.622 59.9947 121.888 59.7396L124.698 56.9783C124.971 57.5296 125.118 58.1348 125.129 58.75Z" fill="#616666"/>
<path d="M837.923 -32.2308H-316.096V153.721H837.923V-32.2308Z" stroke="white" stroke-miterlimit="10"/>
</g>
<defs>
<filter id="filter0_d_307_53" x="0" y="0" width="199" height="199" filterUnits="userSpaceOnUse" color-interpolation-filters="sRGB">
<feFlood flood-opacity="0" result="BackgroundImageFix"/>
<feColorMatrix in="SourceAlpha" type="matrix" values="0 0 0 0 0 0 0 0 0 0 0 0 0 0 0 0 0 0 127 0" result="hardAlpha"/>
<feOffset dy="4"/>
<feGaussianBlur stdDeviation="4"/>
<feComposite in2="hardAlpha" operator="out"/>
<feColorMatrix type="matrix" values="0 0 0 0 0 0 0 0 0 0 0 0 0 0 0 0 0 0 0.25 0"/>
<feBlend mode="normal" in2="BackgroundImageFix" result="effect1_dropShadow_307_53"/>
<feBlend mode="normal" in="SourceGraphic" in2="effect1_dropShadow_307_53" result="shape"/>
</filter>
<clipPath id="clip0_307_53">
<rect width="83" height="83" fill="white" transform="translate(59 38)"/>
</clipPath>
</defs>
</svg>
