<svg width="199" height="199" viewBox="0 0 199 199" fill="none" xmlns="http://www.w3.org/2000/svg">
<g filter="url(#filter0_d_15_51)">
<rect x="8" y="4" width="183" height="183" rx="10" fill="white"/>
<rect x="8.5" y="4.5" width="182" height="182" rx="9.5" stroke="#E3E3E3"/>
</g>
<g clip-path="url(#clip0_15_51)">
<path d="M137.145 107.596C135.857 107.599 134.597 107.218 133.524 106.502C132.451 105.786 131.614 104.767 131.119 103.574C130.624 102.38 130.493 101.066 130.742 99.7982C130.992 98.53 131.611 97.3645 132.521 96.4494C133.431 95.5343 134.591 94.9106 135.854 94.6573C137.118 94.404 138.428 94.5325 139.619 95.0265C140.809 95.5205 141.827 96.3577 142.543 97.4324C143.259 98.507 143.642 99.7706 143.642 101.063C143.642 102.793 142.958 104.453 141.74 105.677C140.522 106.902 138.87 107.592 137.145 107.596ZM137.145 97.0829C136.361 97.0829 135.594 97.3164 134.941 97.7538C134.289 98.1911 133.78 98.8128 133.48 99.5401C133.18 100.267 133.101 101.068 133.254 101.84C133.407 102.612 133.785 103.321 134.34 103.878C134.895 104.435 135.602 104.814 136.371 104.967C137.141 105.121 137.939 105.042 138.664 104.741C139.389 104.439 140.008 103.929 140.444 103.275C140.88 102.62 141.113 101.851 141.113 101.063C141.115 100.54 141.014 100.022 140.815 99.5377C140.616 99.0539 140.324 98.6143 139.955 98.2443C139.587 97.8743 139.148 97.5812 138.666 97.3818C138.184 97.1825 137.667 97.0809 137.145 97.0829Z" fill="#616666"/>
<path d="M137.145 117C133.218 117.004 129.429 115.544 126.516 112.901C123.602 110.259 121.772 106.625 121.382 102.704V102.339H93.761L93.655 102.583C92.1839 105.82 90.0277 108.697 87.3363 111.014C84.6449 113.331 81.4829 115.032 78.07 116C74.6571 116.967 71.0752 117.177 67.5733 116.615C64.0713 116.053 60.7334 114.733 57.7913 112.746C54.8493 110.759 52.3738 108.154 50.5368 105.11C48.6999 102.067 47.5456 98.6582 47.1541 95.1219C46.7627 91.5857 47.1435 88.0063 48.2701 84.6326C49.3967 81.2589 51.242 78.1717 53.6779 75.5858L53.799 75.4794V40.5371H49.6499C49.3384 40.5029 49.0505 40.3545 48.8413 40.1204C48.6321 39.8863 48.5165 39.5829 48.5165 39.2686C48.5165 38.9542 48.6321 38.6509 48.8413 38.4168C49.0505 38.1827 49.3384 38.0343 49.6499 38H107.087C107.423 38.0039 107.744 38.1397 107.982 38.3781C108.22 38.6166 108.355 38.9389 108.359 39.2762C108.355 39.6134 108.22 39.9357 107.982 40.1742C107.744 40.4126 107.423 40.5484 107.087 40.5523H103.664L117.566 70.7394H117.823C123.239 70.9117 128.619 71.6965 133.859 73.079L134.359 73.2006V64.3283C134.359 62.3381 135.495 58.5552 139.28 58.5552C139.596 58.5897 139.887 58.7398 140.099 58.9767C140.311 59.2136 140.428 59.5207 140.428 59.8389C140.428 60.1572 140.311 60.4643 140.099 60.7012C139.887 60.9381 139.596 61.0882 139.28 61.1227C137.463 61.1227 136.933 63.1585 136.903 64.3587V73.8994L137.191 73.9754C142.369 75.4562 147.43 77.3199 152.334 79.551C152.55 79.656 152.733 79.8199 152.862 80.024C152.99 80.2281 153.059 80.4642 153.06 80.7056V101.063C153.058 103.158 152.645 105.232 151.844 107.167C151.043 109.101 149.871 110.859 148.393 112.339C146.915 113.818 145.161 114.992 143.231 115.792C141.301 116.591 139.233 117.002 137.145 117ZM137.145 87.6788C134.505 87.6728 131.923 88.4527 129.725 89.9197C127.527 91.3868 125.813 93.475 124.798 95.9202C123.784 98.3653 123.516 101.057 124.027 103.656C124.538 106.254 125.806 108.642 127.671 110.517C129.535 112.392 131.913 113.669 134.501 114.188C137.09 114.707 139.774 114.444 142.213 113.432C144.653 112.42 146.738 110.704 148.205 108.502C149.673 106.301 150.456 103.712 150.456 101.063C150.456 97.5188 149.055 94.119 146.559 91.6098C144.064 89.1006 140.678 87.6869 137.145 87.6788ZM71.4253 70.4356C67.083 70.4236 62.8348 71.7044 59.2185 74.116C55.6022 76.5275 52.7804 79.9614 51.1104 83.9828C49.4404 88.0042 48.9972 92.4323 49.837 96.7065C50.6768 100.981 52.7618 104.909 55.828 107.994C58.8942 111.078 62.8038 113.181 67.0617 114.035C71.3197 114.89 75.7346 114.457 79.7475 112.793C83.7604 111.129 87.1909 108.307 89.6046 104.686C92.0183 101.064 93.3067 96.8057 93.3067 92.4492C93.3108 86.6201 91.0086 81.0277 86.9059 76.9002C82.8032 72.7728 77.2354 70.4477 71.4253 70.4356ZM87.5222 73.9906C91.0174 77.0632 93.5664 81.0724 94.87 85.5475C96.1736 90.0227 96.1776 94.778 94.8816 99.2554L94.7302 99.7871H121.336V99.4225C121.657 96.2526 122.921 93.2527 124.963 90.8123C127.005 88.372 129.731 86.6038 132.787 85.7373C135.843 84.8709 139.089 84.9461 142.102 85.9534C145.115 86.9606 147.756 88.8533 149.684 91.3858L150.41 92.3429V81.526L150.168 81.4196C145.852 79.5054 130.694 73.2765 116.718 73.2765C116.473 73.2765 116.233 73.2065 116.027 73.0747C115.82 72.9428 115.655 72.7546 115.552 72.5321L100.818 40.6283H56.3279V73.1398L56.979 72.6537C58.022 71.8889 59.1204 71.2034 60.265 70.6027L60.4922 70.4963V45.429C60.4922 45.0932 60.6241 44.7709 60.8594 44.532C61.0946 44.2931 61.4143 44.1569 61.749 44.1529H96.5776C96.8202 44.1539 97.0575 44.2246 97.2614 44.3565C97.4653 44.4884 97.6274 44.676 97.7285 44.8973L109.903 71.4231C110.004 71.6097 110.057 71.8186 110.057 72.0308C110.057 72.243 110.004 72.4519 109.903 72.6385C109.789 72.8211 109.631 72.9715 109.443 73.0752C109.254 73.179 109.043 73.2326 108.828 73.231H86.7045L87.5222 73.9906ZM71.4253 67.9137C75.3602 67.9195 79.2356 68.8785 82.7219 70.709H82.8127H106.769L95.6993 46.7052H63.021V69.3873L63.5662 69.1898C66.0964 68.3236 68.7518 67.8821 71.4253 67.8833V67.9137Z" fill="#616666"/>
<path d="M71.4255 103.707C69.2013 103.713 67.0253 103.056 65.1733 101.821C63.3212 100.585 61.8764 98.8257 61.0217 96.7655C60.1671 94.7053 59.9412 92.437 60.3725 90.2479C60.8038 88.0588 61.8731 86.0474 63.4448 84.4685C65.0165 82.8895 67.0199 81.8141 69.2013 81.3784C71.3827 80.9426 73.6439 81.1663 75.6985 82.0209C77.7531 82.8755 79.5087 84.3227 80.7428 86.1792C81.977 88.0356 82.6342 90.2178 82.6312 92.4492C82.6312 95.4323 81.4511 98.2934 79.35 100.404C77.249 102.515 74.3988 103.703 71.4255 103.707ZM71.4255 83.7288C69.7051 83.7228 68.0216 84.2292 66.5882 85.1837C65.1549 86.1382 64.0361 87.4981 63.3735 89.091C62.711 90.6839 62.5346 92.4382 62.8665 94.1318C63.1985 95.8254 64.0239 97.382 65.2383 98.6046C66.4527 99.8273 68.0014 100.661 69.6883 101C71.3752 101.339 73.1244 101.168 74.7144 100.509C76.3044 99.8496 77.6637 98.7319 78.6202 97.2972C79.5766 95.8624 80.0872 94.1752 80.0872 92.4492C80.0872 90.1417 79.1756 87.9282 77.5521 86.2937C75.9285 84.6592 73.7255 83.7369 71.4255 83.7288Z" fill="#616666"/>
<path d="M1108.51 -28.8461H13.6858V148.144H1108.51V-28.8461Z" stroke="white" stroke-miterlimit="10"/>
</g>
<path d="M75.5312 151.625V163H74.0469V151.625H75.5312ZM79.1875 151.625V152.859H70.3984V151.625H79.1875ZM81.5078 155.875V163H80.0625V154.547H81.4688L81.5078 155.875ZM84.1484 154.5L84.1406 155.844C84.0208 155.818 83.9062 155.802 83.7969 155.797C83.6927 155.786 83.5729 155.781 83.4375 155.781C83.1042 155.781 82.8099 155.833 82.5547 155.938C82.2995 156.042 82.0833 156.188 81.9062 156.375C81.7292 156.562 81.5885 156.786 81.4844 157.047C81.3854 157.302 81.3203 157.583 81.2891 157.891L80.8828 158.125C80.8828 157.615 80.9323 157.135 81.0312 156.688C81.1354 156.24 81.2943 155.844 81.5078 155.5C81.7214 155.151 81.9922 154.88 82.3203 154.688C82.6536 154.49 83.0495 154.391 83.5078 154.391C83.612 154.391 83.7318 154.404 83.8672 154.43C84.0026 154.451 84.0964 154.474 84.1484 154.5ZM90.1562 161.555V157.203C90.1562 156.87 90.0885 156.581 89.9531 156.336C89.8229 156.086 89.625 155.893 89.3594 155.758C89.0938 155.622 88.7656 155.555 88.375 155.555C88.0104 155.555 87.6901 155.617 87.4141 155.742C87.1432 155.867 86.9297 156.031 86.7734 156.234C86.6224 156.438 86.5469 156.656 86.5469 156.891H85.1016C85.1016 156.589 85.1797 156.289 85.3359 155.992C85.4922 155.695 85.7161 155.427 86.0078 155.188C86.3047 154.943 86.6589 154.75 87.0703 154.609C87.487 154.464 87.9505 154.391 88.4609 154.391C89.0755 154.391 89.6172 154.495 90.0859 154.703C90.5599 154.911 90.9297 155.227 91.1953 155.648C91.4661 156.065 91.6016 156.589 91.6016 157.219V161.156C91.6016 161.438 91.625 161.737 91.6719 162.055C91.724 162.372 91.7995 162.646 91.8984 162.875V163H90.3906C90.3177 162.833 90.2604 162.612 90.2188 162.336C90.1771 162.055 90.1562 161.794 90.1562 161.555ZM90.4062 157.875L90.4219 158.891H88.9609C88.5495 158.891 88.1823 158.924 87.8594 158.992C87.5365 159.055 87.2656 159.151 87.0469 159.281C86.8281 159.411 86.6615 159.576 86.5469 159.773C86.4323 159.966 86.375 160.193 86.375 160.453C86.375 160.719 86.4349 160.961 86.5547 161.18C86.6745 161.398 86.8542 161.573 87.0938 161.703C87.3385 161.828 87.638 161.891 87.9922 161.891C88.4349 161.891 88.8255 161.797 89.1641 161.609C89.5026 161.422 89.7708 161.193 89.9688 160.922C90.1719 160.651 90.2812 160.388 90.2969 160.133L90.9141 160.828C90.8776 161.047 90.7786 161.289 90.6172 161.555C90.4557 161.82 90.2396 162.076 89.9688 162.32C89.7031 162.56 89.3854 162.76 89.0156 162.922C88.651 163.078 88.2396 163.156 87.7812 163.156C87.2083 163.156 86.7057 163.044 86.2734 162.82C85.8464 162.596 85.513 162.297 85.2734 161.922C85.0391 161.542 84.9219 161.117 84.9219 160.648C84.9219 160.195 85.0104 159.797 85.1875 159.453C85.3646 159.104 85.6198 158.815 85.9531 158.586C86.2865 158.352 86.6875 158.174 87.1562 158.055C87.625 157.935 88.1484 157.875 88.7266 157.875H90.4062ZM97.4141 154.547V155.656H92.8438V154.547H97.4141ZM94.3906 152.492H95.8359V160.906C95.8359 161.193 95.8802 161.409 95.9688 161.555C96.0573 161.701 96.1719 161.797 96.3125 161.844C96.4531 161.891 96.6042 161.914 96.7656 161.914C96.8854 161.914 97.0104 161.904 97.1406 161.883C97.276 161.857 97.3776 161.836 97.4453 161.82L97.4531 163C97.3385 163.036 97.1875 163.07 97 163.102C96.8177 163.138 96.5964 163.156 96.3359 163.156C95.9818 163.156 95.6562 163.086 95.3594 162.945C95.0625 162.805 94.8255 162.57 94.6484 162.242C94.4766 161.909 94.3906 161.461 94.3906 160.898V152.492ZM98.5703 158.867V158.688C98.5703 158.078 98.6589 157.513 98.8359 156.992C99.013 156.466 99.2682 156.01 99.6016 155.625C99.9349 155.234 100.339 154.932 100.812 154.719C101.286 154.5 101.818 154.391 102.406 154.391C103 154.391 103.534 154.5 104.008 154.719C104.487 154.932 104.893 155.234 105.227 155.625C105.565 156.01 105.823 156.466 106 156.992C106.177 157.513 106.266 158.078 106.266 158.688V158.867C106.266 159.477 106.177 160.042 106 160.562C105.823 161.083 105.565 161.539 105.227 161.93C104.893 162.315 104.49 162.617 104.016 162.836C103.547 163.049 103.016 163.156 102.422 163.156C101.828 163.156 101.294 163.049 100.82 162.836C100.346 162.617 99.9401 162.315 99.6016 161.93C99.2682 161.539 99.013 161.083 98.8359 160.562C98.6589 160.042 98.5703 159.477 98.5703 158.867ZM100.016 158.688V158.867C100.016 159.289 100.065 159.688 100.164 160.062C100.263 160.432 100.411 160.76 100.609 161.047C100.812 161.333 101.065 161.56 101.367 161.727C101.669 161.888 102.021 161.969 102.422 161.969C102.818 161.969 103.164 161.888 103.461 161.727C103.763 161.56 104.013 161.333 104.211 161.047C104.409 160.76 104.557 160.432 104.656 160.062C104.76 159.688 104.812 159.289 104.812 158.867V158.688C104.812 158.271 104.76 157.878 104.656 157.508C104.557 157.133 104.406 156.802 104.203 156.516C104.005 156.224 103.755 155.995 103.453 155.828C103.156 155.661 102.807 155.578 102.406 155.578C102.01 155.578 101.661 155.661 101.359 155.828C101.062 155.995 100.812 156.224 100.609 156.516C100.411 156.802 100.263 157.133 100.164 157.508C100.065 157.878 100.016 158.271 100.016 158.688ZM109.523 155.875V163H108.078V154.547H109.484L109.523 155.875ZM112.164 154.5L112.156 155.844C112.036 155.818 111.922 155.802 111.812 155.797C111.708 155.786 111.589 155.781 111.453 155.781C111.12 155.781 110.826 155.833 110.57 155.938C110.315 156.042 110.099 156.188 109.922 156.375C109.745 156.562 109.604 156.786 109.5 157.047C109.401 157.302 109.336 157.583 109.305 157.891L108.898 158.125C108.898 157.615 108.948 157.135 109.047 156.688C109.151 156.24 109.31 155.844 109.523 155.5C109.737 155.151 110.008 154.88 110.336 154.688C110.669 154.49 111.065 154.391 111.523 154.391C111.628 154.391 111.747 154.404 111.883 154.43C112.018 154.451 112.112 154.474 112.164 154.5ZM116.852 163.156C116.263 163.156 115.729 163.057 115.25 162.859C114.776 162.656 114.367 162.372 114.023 162.008C113.685 161.643 113.424 161.211 113.242 160.711C113.06 160.211 112.969 159.664 112.969 159.07V158.742C112.969 158.055 113.07 157.443 113.273 156.906C113.477 156.365 113.753 155.906 114.102 155.531C114.451 155.156 114.846 154.872 115.289 154.68C115.732 154.487 116.19 154.391 116.664 154.391C117.268 154.391 117.789 154.495 118.227 154.703C118.669 154.911 119.031 155.203 119.312 155.578C119.594 155.948 119.802 156.385 119.938 156.891C120.073 157.391 120.141 157.938 120.141 158.531V159.18H113.828V158H118.695V157.891C118.674 157.516 118.596 157.151 118.461 156.797C118.331 156.443 118.122 156.151 117.836 155.922C117.549 155.693 117.159 155.578 116.664 155.578C116.336 155.578 116.034 155.648 115.758 155.789C115.482 155.924 115.245 156.128 115.047 156.398C114.849 156.669 114.695 157 114.586 157.391C114.477 157.781 114.422 158.232 114.422 158.742V159.07C114.422 159.471 114.477 159.849 114.586 160.203C114.701 160.552 114.865 160.859 115.078 161.125C115.297 161.391 115.56 161.599 115.867 161.75C116.18 161.901 116.534 161.977 116.93 161.977C117.44 161.977 117.872 161.872 118.227 161.664C118.581 161.456 118.891 161.177 119.156 160.828L120.031 161.523C119.849 161.799 119.617 162.062 119.336 162.312C119.055 162.562 118.708 162.766 118.297 162.922C117.891 163.078 117.409 163.156 116.852 163.156ZM126.75 160.758C126.75 160.549 126.703 160.357 126.609 160.18C126.521 159.997 126.336 159.833 126.055 159.688C125.779 159.536 125.362 159.406 124.805 159.297C124.336 159.198 123.911 159.081 123.531 158.945C123.156 158.81 122.836 158.646 122.57 158.453C122.31 158.26 122.109 158.034 121.969 157.773C121.828 157.513 121.758 157.208 121.758 156.859C121.758 156.526 121.831 156.211 121.977 155.914C122.128 155.617 122.339 155.354 122.609 155.125C122.885 154.896 123.216 154.716 123.602 154.586C123.987 154.456 124.417 154.391 124.891 154.391C125.568 154.391 126.146 154.51 126.625 154.75C127.104 154.99 127.471 155.31 127.727 155.711C127.982 156.107 128.109 156.547 128.109 157.031H126.664C126.664 156.797 126.594 156.57 126.453 156.352C126.318 156.128 126.117 155.943 125.852 155.797C125.591 155.651 125.271 155.578 124.891 155.578C124.49 155.578 124.164 155.641 123.914 155.766C123.669 155.885 123.49 156.039 123.375 156.227C123.266 156.414 123.211 156.612 123.211 156.82C123.211 156.977 123.237 157.117 123.289 157.242C123.346 157.362 123.445 157.474 123.586 157.578C123.727 157.677 123.924 157.771 124.18 157.859C124.435 157.948 124.76 158.036 125.156 158.125C125.849 158.281 126.419 158.469 126.867 158.688C127.315 158.906 127.648 159.174 127.867 159.492C128.086 159.81 128.195 160.195 128.195 160.648C128.195 161.018 128.117 161.357 127.961 161.664C127.81 161.971 127.589 162.237 127.297 162.461C127.01 162.68 126.667 162.852 126.266 162.977C125.87 163.096 125.424 163.156 124.93 163.156C124.185 163.156 123.555 163.023 123.039 162.758C122.523 162.492 122.133 162.148 121.867 161.727C121.602 161.305 121.469 160.859 121.469 160.391H122.922C122.943 160.786 123.057 161.102 123.266 161.336C123.474 161.565 123.729 161.729 124.031 161.828C124.333 161.922 124.633 161.969 124.93 161.969C125.326 161.969 125.656 161.917 125.922 161.812C126.193 161.708 126.398 161.565 126.539 161.383C126.68 161.201 126.75 160.992 126.75 160.758Z" fill="#EC6608"/>
<defs>
<filter id="filter0_d_15_51" x="0" y="0" width="199" height="199" filterUnits="userSpaceOnUse" color-interpolation-filters="sRGB">
<feFlood flood-opacity="0" result="BackgroundImageFix"/>
<feColorMatrix in="SourceAlpha" type="matrix" values="0 0 0 0 0 0 0 0 0 0 0 0 0 0 0 0 0 0 127 0" result="hardAlpha"/>
<feOffset dy="4"/>
<feGaussianBlur stdDeviation="4"/>
<feComposite in2="hardAlpha" operator="out"/>
<feColorMatrix type="matrix" values="0 0 0 0 0 0 0 0 0 0 0 0 0 0 0 0 0 0 0.25 0"/>
<feBlend mode="normal" in2="BackgroundImageFix" result="effect1_dropShadow_15_51"/>
<feBlend mode="normal" in="SourceGraphic" in2="effect1_dropShadow_15_51" result="shape"/>
</filter>
<clipPath id="clip0_15_51">
<rect width="106" height="79" fill="white" transform="translate(47 38)"/>
</clipPath>
</defs>
</svg>
