<svg width="160" height="64" viewBox="0 0 160 64" fill="none" xmlns="http://www.w3.org/2000/svg">
<path d="M42.0959 37.5386C40.6924 40.0788 39.0082 40.7844 38.3065 41.0667C38.1661 41.0667 38.0258 41.2078 38.0258 41.3489C38.0258 41.49 37.8854 41.6311 38.0258 41.6311C38.1661 42.4779 38.3065 44.3125 36.903 46.7116C35.0784 49.8163 31.1486 51.9331 27.0784 49.534C22.7275 46.9938 22.5872 39.7965 22.5872 36.2685C22.5872 35.9862 22.7275 35.8451 23.0082 35.8451C23.5696 35.704 24.2714 35.2806 24.6924 34.8573C24.8328 34.7161 25.2538 34.575 25.3942 34.8573C26.3766 35.704 27.4994 37.1152 27.9205 37.8208C28.0608 37.962 28.3416 38.1031 28.4819 37.962C29.324 37.5386 30.1661 37.3975 30.7275 37.5386C30.8679 37.5386 30.8679 37.5386 31.0082 37.3975V37.1152C30.7275 36.6919 30.3065 35.9862 30.3065 34.8573C30.3065 34.575 30.1661 34.4339 29.8854 34.4339C29.0433 34.4339 27.3591 34.1517 26.0959 33.7283C25.8152 33.5872 25.6749 33.3049 25.8152 33.0227C25.9556 32.3171 25.9556 31.7526 25.8152 31.047C25.8152 30.7647 25.8152 30.6236 26.0959 30.4825C29.0433 28.6479 35.4994 25.2609 39.8503 27.66C43.6398 30.0591 43.7801 34.4339 42.0959 37.5386ZM20.4819 35.704C19.9205 35.5629 19.2187 35.1395 18.7977 34.7161C18.6573 34.575 18.2363 34.4339 18.0959 34.7161C17.1135 35.5629 15.9907 36.9741 15.5696 37.6797C15.4293 37.8208 15.1486 37.962 15.0082 37.8208C14.1661 37.3975 13.324 37.2563 12.7626 37.3975C12.6223 37.3975 12.6223 37.3975 12.4819 37.2563V36.9741C12.7626 36.5507 13.1837 35.8451 13.1837 34.7161C13.1837 34.4339 13.324 34.2928 13.6047 34.2928C14.4468 34.2928 16.131 34.0105 17.3942 33.5872C17.6749 33.446 17.8152 33.1638 17.6749 32.8815C17.5345 32.1759 17.5345 31.6114 17.6749 30.9058C17.6749 30.6236 17.6749 30.4825 17.3942 30.3413C14.4468 28.5067 7.99067 25.1198 3.6398 27.5189C-0.570729 29.918 -0.711081 34.4339 1.11348 37.5386C2.51699 40.0788 4.2012 40.7844 4.90295 41.0667C5.0433 41.0667 5.18365 41.2078 5.18365 41.3489C5.18365 41.49 5.32401 41.6311 5.18365 41.6311C5.0433 42.4779 4.90295 44.3125 6.30646 46.7116C8.13102 49.8163 12.0608 51.9331 16.131 49.534C20.4819 46.9938 20.6223 39.7965 20.6223 36.2685C20.903 35.9862 20.7626 35.8451 20.4819 35.704ZM24.131 31.8937C24.131 30.4825 23.0082 29.4946 21.7451 29.4946C20.3415 29.4946 19.3591 30.6236 19.3591 31.8937C19.3591 33.3049 20.4819 34.2928 21.7451 34.2928C23.0082 34.2928 24.131 33.1638 24.131 31.8937ZM18.2363 29.0712C18.3766 29.2124 18.6573 29.0712 18.7977 28.9301C19.2187 28.5067 19.7801 28.0834 20.4819 27.9423C20.7626 27.8011 20.903 27.66 20.903 27.3778C20.6223 26.1077 19.9205 24.4142 19.6398 23.7086C19.4994 23.4263 19.6398 23.2852 19.7801 23.1441C20.6223 22.5796 21.0433 21.874 21.324 21.4506C21.324 21.3095 21.4644 21.3095 21.6047 21.3095C21.7451 21.3095 21.7451 21.3095 21.8854 21.4506C22.1661 22.0151 22.5872 22.7207 23.4293 23.1441C23.5696 23.2852 23.71 23.5675 23.5696 23.7086C23.2889 24.4142 22.5872 25.9665 22.3065 27.3778C22.3065 27.66 22.4468 27.9423 22.7275 27.9423C23.4293 28.0834 23.9907 28.5067 24.4117 28.9301C24.5521 29.0712 24.8328 29.0712 24.9731 29.0712C28.0608 27.3778 34.2363 23.5675 34.2363 18.487C34.2363 13.6889 30.4468 11.2898 26.938 11.2898C24.131 11.2898 22.5872 12.2777 22.0258 12.8421C21.8854 12.9833 21.8854 12.9833 21.7451 12.9833C21.6047 12.9833 21.4644 12.9833 21.4644 12.8421C20.903 12.2777 19.3591 11.2898 16.5521 11.2898C12.903 11.2898 9.25383 13.6889 9.25383 18.487C9.11348 23.5675 15.2889 27.3778 18.2363 29.0712Z" fill="white"/>
<path d="M65.6338 17.1718H65.0275C62.0296 17.1718 59.6885 17.9338 58.0043 19.458C56.3538 20.9482 55.5285 23.607 55.5285 27.4342C55.5285 28.6874 55.6464 29.568 55.8822 30.076C56.118 30.5502 56.2359 30.8212 56.2359 30.8889C54.417 30.8889 53.0527 30.5163 52.1433 29.7712C51.2675 28.9922 50.8296 27.7221 50.8296 25.9609C50.8296 23.5562 51.4191 21.3716 52.598 19.4072C53.777 17.4089 55.6464 15.8001 58.2064 14.5808C60.8001 13.3615 64.0843 12.7518 68.0591 12.7518C70.2822 12.7518 72.6738 12.955 75.2338 13.3615C77.3896 13.734 79.3096 13.9203 80.9938 13.9203C83.1496 13.9203 85.1033 13.5647 86.8549 12.8534C86.7875 15.055 86.2317 16.6807 85.1875 17.7306C84.1433 18.7806 82.5938 19.3056 80.5391 19.3056C79.4612 19.3056 78.3833 19.2209 77.3054 19.0515C76.2275 18.8822 74.6949 18.5943 72.7075 18.1879L65.7349 50.8041H58.4591L65.6338 17.1718Z" fill="black"/>
<path d="M78.2879 25.4021H85.5637L84.9068 28.5519C86.0521 27.5358 87.0795 26.7568 87.9889 26.2149C88.9321 25.673 89.9426 25.4021 91.0205 25.4021C92.0984 25.4021 92.9405 25.7746 93.5468 26.5197C94.1868 27.2649 94.5068 28.1624 94.5068 29.2124C94.5068 30.1946 94.1868 31.0583 93.5468 31.8034C92.9068 32.5485 92.0142 32.9211 90.8689 32.9211C90.1279 32.9211 89.6226 32.7517 89.3531 32.413C89.1174 32.0405 88.9321 31.5155 88.7974 30.8381C88.6963 30.3978 88.5952 30.076 88.4942 29.8728C88.3931 29.6696 88.2079 29.568 87.9384 29.568C87.231 29.568 86.6247 29.7204 86.1195 30.0252C85.6479 30.2962 85.0247 30.7873 84.25 31.4986L80.2079 50.8041H72.9321L78.2879 25.4021Z" fill="black"/>
<path d="M101.074 51.1089C98.5814 51.1089 96.6446 50.4654 95.2635 49.1784C93.8825 47.8575 93.192 45.8084 93.192 43.0311C93.192 40.6941 93.6467 38.12 94.5562 35.3089C95.4656 32.4977 96.9477 30.076 99.0025 28.0439C101.057 25.9778 103.668 24.9448 106.834 24.9448C110.539 24.9448 112.392 26.5706 112.392 29.822C112.392 31.7187 111.853 33.463 110.775 35.0548C109.697 36.6467 108.266 37.9337 106.48 38.916C104.695 39.8643 102.792 40.4062 100.771 40.5417C100.704 41.5578 100.67 42.2352 100.67 42.5739C100.67 44.2335 100.956 45.3681 101.529 45.9777C102.101 46.5535 103.028 46.8414 104.308 46.8414C106.127 46.8414 107.676 46.418 108.956 45.5713C110.27 44.7246 111.701 43.4375 113.251 41.7102H114.969C111.23 47.976 106.598 51.1089 101.074 51.1089ZM101.175 38.1031C102.421 38.0354 103.6 37.595 104.712 36.7822C105.857 35.9693 106.767 34.9363 107.44 33.6831C108.148 32.43 108.501 31.1091 108.501 29.7204C108.501 28.3318 108.08 27.6374 107.238 27.6374C106.026 27.6374 104.83 28.7043 103.651 30.8381C102.506 32.9719 101.68 35.3935 101.175 38.1031Z" fill="black"/>
<path d="M119 51.1089C117.047 51.1089 115.514 50.6178 114.402 49.6356C113.324 48.6195 112.786 47.1124 112.786 45.1141C112.786 44.3012 112.87 43.4883 113.038 42.6755L116.676 25.4021H123.952L120.314 42.6755C120.146 43.5222 120.061 44.1318 120.061 44.5044C120.061 45.6221 120.634 46.1809 121.779 46.1809C123.329 46.1809 124.76 45.1987 126.074 43.2343C127.421 41.2699 128.499 38.9329 129.308 36.2233C130.116 33.5138 130.52 31.1768 130.52 29.2124C130.453 29.3817 130.234 29.5172 129.863 29.6188C129.493 29.6865 129.173 29.7204 128.903 29.7204C128.331 29.7204 127.876 29.4495 127.539 28.9075C127.236 28.3656 127.084 27.7729 127.084 27.1294C127.084 26.3165 127.337 25.6561 127.842 25.148C128.381 24.64 129.173 24.386 130.217 24.386C131.329 24.386 132.137 24.8093 132.642 25.6561C133.148 26.4689 133.4 27.5189 133.4 28.8059C133.4 31.8542 132.878 35.1226 131.834 38.6111C130.79 42.0658 129.19 45.0125 127.034 47.451C124.878 49.8896 122.2 51.1089 119 51.1089Z" fill="black"/>
<path d="M141.538 51.0073C139.045 51.0073 137.075 50.3638 135.627 49.0768C134.178 47.7897 133.454 45.7576 133.454 42.9803C133.454 40.6433 133.909 38.0862 134.818 35.3089C135.728 32.4977 137.21 30.076 139.264 28.0439C141.319 25.9778 143.947 24.9448 147.147 24.9448C151.121 24.9448 153.26 27.231 153.563 31.8034C154.304 31.634 154.961 31.2276 155.534 30.5841C156.107 29.9067 156.645 29.1446 157.151 28.2979H158.768C157.858 30.1268 157.05 31.5663 156.342 32.6162C155.635 33.6323 154.709 34.4621 153.563 35.1056C153.361 38.2894 152.704 41.0836 151.593 43.4883C150.515 45.8931 149.1 47.7559 147.349 49.0768C145.597 50.3638 143.66 51.0073 141.538 51.0073ZM143.559 46.435C144.805 46.435 145.968 45.4189 147.045 43.3867C148.123 41.3546 148.864 38.8482 149.269 35.8677C148.46 35.5629 148.056 34.8008 148.056 33.5815C148.056 32.2606 148.528 31.38 149.471 30.9397C149.403 29.8559 149.218 29.1108 148.915 28.7043C148.645 28.264 148.191 28.0439 147.551 28.0439C146.439 28.0439 145.378 28.8567 144.368 30.4825C143.357 32.0743 142.532 34.0218 141.892 36.3249C141.286 38.5942 140.982 40.5925 140.982 42.3198C140.982 43.9456 141.168 45.0463 141.538 45.6221C141.909 46.164 142.582 46.435 143.559 46.435Z" fill="black"/>
<g filter="url(#filter0_d_371_49)">
<path d="M42.4768 36.8836C41.354 38.9157 40.0066 39.4802 39.4452 39.706C39.3329 39.706 39.2207 39.8189 39.2207 39.9318C39.2207 40.0447 39.1084 40.1576 39.2207 40.1576C39.3329 40.835 39.4452 42.3027 38.3224 44.2219C36.8628 46.7057 33.7189 48.3992 30.4628 46.4799C26.9821 44.4477 26.8698 38.6899 26.8698 35.8675C26.8698 35.6417 26.9821 35.5288 27.2066 35.5288C27.6557 35.4159 28.2171 35.0772 28.554 34.7385C28.6663 34.6256 29.0031 34.5127 29.1154 34.7385C29.9014 35.4159 30.7996 36.5449 31.1364 37.1094C31.2487 37.2222 31.4733 37.3352 31.5856 37.2223C32.2593 36.8836 32.9329 36.7707 33.3821 36.8836C33.4943 36.8836 33.4943 36.8836 33.6066 36.7707V36.5449C33.3821 36.2062 33.0452 35.6417 33.0452 34.7385C33.0452 34.5127 32.9329 34.3998 32.7084 34.3998C32.0347 34.3998 30.6873 34.174 29.6768 33.8353C29.4522 33.7224 29.34 33.4966 29.4522 33.2708C29.5645 32.7063 29.5645 32.2547 29.4522 31.6902C29.4522 31.4645 29.4522 31.3516 29.6768 31.2387C32.0347 29.771 37.1996 27.0614 40.6803 28.9807C43.7119 30.9 43.8242 34.3998 42.4768 36.8836ZM25.1856 35.4159C24.7364 35.303 24.175 34.9643 23.8382 34.6256C23.7259 34.5127 23.3891 34.3998 23.2768 34.6256C22.4908 35.303 21.5926 36.432 21.2557 36.9965C21.1435 37.1094 20.9189 37.2222 20.8066 37.1094C20.1329 36.7707 19.4593 36.6578 19.0101 36.7707C18.8979 36.7707 18.8979 36.7707 18.7856 36.6578V36.432C19.0101 36.0933 19.347 35.5288 19.347 34.6256C19.347 34.3998 19.4593 34.2869 19.6838 34.2869C20.3575 34.2869 21.7049 34.0611 22.7154 33.7224C22.94 33.6095 23.0522 33.3837 22.94 33.1579C22.8277 32.5934 22.8277 32.1418 22.94 31.5774C22.94 31.3516 22.94 31.2387 22.7154 31.1258C20.3575 29.6581 15.1926 26.9485 11.7119 28.8678C8.34347 30.7871 8.23118 34.3998 9.69083 36.8836C10.8136 38.9157 12.161 39.4802 12.7224 39.706C12.8347 39.706 12.947 39.8189 12.947 39.9318C12.947 40.0447 13.0593 40.1576 12.947 40.1576C12.8347 40.835 12.7224 42.3027 13.8452 44.2219C15.3049 46.7057 18.4487 48.3992 21.7049 46.4799C25.1856 44.4477 25.2978 38.6899 25.2978 35.8675C25.5224 35.6417 25.4101 35.5288 25.1856 35.4159ZM28.1049 32.3676C28.1049 31.2387 27.2066 30.4484 26.1961 30.4484C25.0733 30.4484 24.2873 31.3516 24.2873 32.3676C24.2873 33.4966 25.1856 34.2869 26.1961 34.2869C27.2066 34.2869 28.1049 33.3837 28.1049 32.3676ZM23.3891 30.1097C23.5014 30.2226 23.7259 30.1097 23.8382 29.9968C24.175 29.6581 24.6242 29.3194 25.1856 29.2065C25.4101 29.0936 25.5224 28.9807 25.5224 28.7549C25.2978 27.7388 24.7364 26.384 24.5119 25.8195C24.3996 25.5937 24.5119 25.4809 24.6242 25.368C25.2979 24.9164 25.6347 24.3519 25.8593 24.0132C25.8593 23.9003 25.9715 23.9003 26.0838 23.9003C26.1961 23.9003 26.1961 23.9003 26.3084 24.0132C26.5329 24.4648 26.8698 25.0293 27.5435 25.368C27.6557 25.4809 27.768 25.7066 27.6557 25.8195C27.4312 26.384 26.8698 27.6259 26.6452 28.7549C26.6452 28.9807 26.7575 29.2065 26.9821 29.2065C27.5435 29.3194 27.9926 29.6581 28.3294 29.9968C28.4417 30.1097 28.6663 30.1097 28.7786 30.1097C31.2487 28.7549 36.1891 25.7067 36.1891 21.6423C36.1891 17.8038 33.1575 15.8845 30.3505 15.8845C28.1049 15.8845 26.8698 16.6748 26.4207 17.1264C26.3084 17.2393 26.3084 17.2393 26.1961 17.2393C26.0838 17.2393 25.9715 17.2393 25.9715 17.1264C25.5224 16.6748 24.2873 15.8845 22.0417 15.8845C19.1224 15.8845 16.2031 17.8038 16.2031 21.6423C16.0908 25.7067 21.0312 28.7549 23.3891 30.1097Z" fill="white"/>
</g>
<defs>
<filter id="filter0_d_371_49" x="4.80005" y="15.8845" width="42.5005" height="39.4235" filterUnits="userSpaceOnUse" color-interpolation-filters="sRGB">
<feFlood flood-opacity="0" result="BackgroundImageFix"/>
<feColorMatrix in="SourceAlpha" type="matrix" values="0 0 0 0 0 0 0 0 0 0 0 0 0 0 0 0 0 0 127 0" result="hardAlpha"/>
<feOffset dy="4"/>
<feGaussianBlur stdDeviation="2"/>
<feComposite in2="hardAlpha" operator="out"/>
<feColorMatrix type="matrix" values="0 0 0 0 0 0 0 0 0 0 0 0 0 0 0 0 0 0 0.25 0"/>
<feBlend mode="normal" in2="BackgroundImageFix" result="effect1_dropShadow_371_49"/>
<feBlend mode="normal" in="SourceGraphic" in2="effect1_dropShadow_371_49" result="shape"/>
</filter>
</defs>
</svg>
