<svg width="200" height="81" viewBox="0 0 200 81" fill="none" xmlns="http://www.w3.org/2000/svg">
<path d="M52.6199 47.8305C50.8655 51.0057 48.7603 51.8878 47.8831 52.2406C47.7076 52.2406 47.5322 52.417 47.5322 52.5934C47.5322 52.7698 47.3568 52.9462 47.5322 52.9462C47.7076 54.0046 47.8831 56.2978 46.1287 59.2967C43.848 63.1776 38.9357 65.8236 33.848 62.8248C28.4094 59.6495 28.234 50.6529 28.234 46.2428C28.234 45.89 28.4094 45.7136 28.7603 45.7136C29.462 45.5372 30.3392 45.008 30.8655 44.4788C31.041 44.3024 31.5673 44.126 31.7427 44.4788C32.9708 45.5372 34.3743 47.3013 34.9006 48.1833C35.0761 48.3597 35.4269 48.5361 35.6024 48.3597C36.655 47.8305 37.7076 47.6541 38.4094 47.8305C38.5848 47.8305 38.5848 47.8305 38.7603 47.6541V47.3013C38.4094 46.7721 37.8831 45.89 37.8831 44.4788C37.8831 44.126 37.7076 43.9496 37.3568 43.9496C36.3041 43.9496 34.1989 43.5968 32.6199 43.0676C32.269 42.8912 32.0936 42.5384 32.269 42.1856C32.4445 41.3036 32.4445 40.598 32.269 39.7159C32.269 39.3631 32.269 39.1867 32.6199 39.0103C36.3041 36.7171 44.3743 32.4834 49.8129 35.4823C54.5497 38.4811 54.7252 43.9496 52.6199 47.8305ZM25.6024 45.5372C24.9006 45.3608 24.0234 44.8316 23.4971 44.3024C23.3217 44.126 22.7954 43.9496 22.6199 44.3024C21.3918 45.3608 19.9883 47.1249 19.462 48.0069C19.2866 48.1833 18.9357 48.3597 18.7603 48.1833C17.7076 47.6541 16.655 47.4777 15.9533 47.6541C15.7778 47.6541 15.7778 47.6541 15.6024 47.4777V47.1249C15.9533 46.5957 16.4796 45.7136 16.4796 44.3024C16.4796 43.9496 16.655 43.7732 17.0059 43.7732C18.0585 43.7732 20.1638 43.4204 21.7427 42.8912C22.0936 42.7148 22.269 42.362 22.0936 42.0092C21.9182 41.1272 21.9182 40.4216 22.0936 39.5395C22.0936 39.1867 22.0936 39.0103 21.7427 38.8339C18.0585 36.5407 9.98834 32.307 4.54975 35.3059C-0.713411 38.3047 -0.888851 43.9496 1.39185 47.8305C3.14624 51.0057 5.2515 51.8878 6.12869 52.2406C6.30413 52.2406 6.47957 52.417 6.47957 52.5934C6.47957 52.7698 6.65501 52.9462 6.47957 52.9462C6.30413 54.0046 6.12869 56.2978 7.88308 59.2967C10.1638 63.1776 15.0761 65.8236 20.1638 62.8248C25.6024 59.6495 25.7778 50.6529 25.7778 46.2428C26.1287 45.89 25.9533 45.7136 25.6024 45.5372ZM30.1638 40.7744C30.1638 39.0103 28.7603 37.7755 27.1813 37.7755C25.4269 37.7755 24.1989 39.1867 24.1989 40.7744C24.1989 42.5384 25.6024 43.7732 27.1813 43.7732C28.7603 43.7732 30.1638 42.362 30.1638 40.7744ZM22.7954 37.2463C22.9708 37.4227 23.3217 37.2463 23.4971 37.0699C24.0234 36.5407 24.7252 36.0115 25.6024 35.8351C25.9533 35.6587 26.1287 35.4823 26.1287 35.1295C25.7778 33.5418 24.9006 31.425 24.5497 30.543C24.3743 30.1902 24.5497 30.0138 24.7252 29.8374C25.7778 29.1317 26.3041 28.2497 26.655 27.7205C26.655 27.5441 26.8304 27.5441 27.0059 27.5441C27.1813 27.5441 27.1813 27.5441 27.3568 27.7205C27.7076 28.4261 28.234 29.3081 29.2866 29.8374C29.462 30.0138 29.6375 30.3666 29.462 30.543C29.1111 31.425 28.234 33.3654 27.8831 35.1295C27.8831 35.4823 28.0585 35.8351 28.4094 35.8351C29.2866 36.0115 29.9883 36.5407 30.5147 37.0699C30.6901 37.2463 31.041 37.2463 31.2164 37.2463C35.0761 35.1294 42.7954 30.3666 42.7954 24.016C42.7954 18.0183 38.0585 15.0195 33.6725 15.0195C30.1638 15.0195 28.234 16.2543 27.5322 16.9599C27.3568 17.1363 27.3568 17.1363 27.1813 17.1363C27.0059 17.1363 26.8304 17.1363 26.8304 16.9599C26.1287 16.2543 24.1989 15.0195 20.6901 15.0195C16.1287 15.0195 11.5673 18.0183 11.5673 24.016C11.3919 30.3666 19.1111 35.1294 22.7954 37.2463Z" fill="#0DB04B"/>
<path d="M82.0421 22.372H81.2842C77.5369 22.372 74.6105 23.3245 72.5053 25.2297C70.4421 27.0925 69.4105 30.416 69.4105 35.2C69.4105 36.7665 69.5579 37.8672 69.8527 38.5023C70.1474 39.095 70.2948 39.4337 70.2948 39.5184C68.0211 39.5184 66.3158 39.0527 65.179 38.1212C64.0842 37.1475 63.5369 35.5599 63.5369 33.3584C63.5369 30.3524 64.2737 27.6217 65.7474 25.1662C67.2211 22.6683 69.5579 20.6573 72.7579 19.1332C76 17.6091 80.1053 16.847 85.0737 16.847C87.8527 16.847 90.8421 17.101 94.0421 17.6091C96.7369 18.0748 99.1369 18.3076 101.242 18.3076C103.937 18.3076 106.379 17.8631 108.568 16.974C108.484 19.7259 107.789 21.7581 106.484 23.0705C105.179 24.383 103.242 25.0392 100.674 25.0392C99.3263 25.0392 97.979 24.9333 96.6316 24.7217C95.2842 24.51 93.3684 24.1501 90.8842 23.6421L82.1684 64.4124H73.0737L82.0421 22.372Z" fill="#0DB04B"/>
<path d="M97.8597 32.6598H106.954L106.133 36.5971C107.565 35.327 108.849 34.3533 109.986 33.6759C111.165 32.9985 112.428 32.6598 113.776 32.6598C115.123 32.6598 116.176 33.1255 116.933 34.0569C117.733 34.9883 118.133 36.1102 118.133 37.4227C118.133 38.6504 117.733 39.73 116.933 40.6614C116.133 41.5929 115.018 42.0586 113.586 42.0586C112.66 42.0586 112.028 41.8469 111.691 41.4235C111.397 40.9578 111.165 40.3016 110.997 39.4548C110.87 38.9045 110.744 38.5023 110.618 38.2483C110.491 37.9942 110.26 37.8672 109.923 37.8672C109.039 37.8672 108.281 38.0577 107.649 38.4388C107.06 38.7775 106.281 39.3913 105.312 40.2804L100.26 64.4124H91.165L97.8597 32.6598Z" fill="#0DB04B"/>
<path d="M126.342 64.7934C123.227 64.7934 120.806 63.989 119.079 62.3802C117.353 60.7291 116.49 58.1677 116.49 54.6961C116.49 51.7748 117.058 48.5573 118.195 45.0433C119.332 41.5294 121.185 38.5023 123.753 35.9621C126.321 33.3795 129.585 32.0883 133.542 32.0883C138.174 32.0883 140.49 34.1204 140.49 38.1847C140.49 40.5556 139.816 42.736 138.469 44.7258C137.121 46.7156 135.332 48.3244 133.1 49.5522C130.869 50.7376 128.49 51.415 125.964 51.5843C125.879 52.8544 125.837 53.7012 125.837 54.1245C125.837 56.199 126.195 57.6173 126.911 58.3794C127.627 59.0991 128.785 59.459 130.385 59.459C132.658 59.459 134.595 58.9298 136.195 57.8713C137.837 56.8129 139.627 55.2041 141.564 53.045H143.711C139.037 60.8773 133.248 64.7934 126.342 64.7934ZM126.469 48.5361C128.027 48.4514 129.5 47.901 130.89 46.885C132.321 45.8689 133.458 44.5776 134.3 43.0111C135.185 41.4447 135.627 39.7935 135.627 38.0577C135.627 36.3219 135.1 35.454 134.048 35.454C132.532 35.454 131.037 36.7876 129.564 39.4548C128.132 42.1221 127.1 45.1491 126.469 48.5361Z" fill="#0DB04B"/>
<path d="M148.75 64.7934C146.308 64.7934 144.392 64.1795 143.003 62.9518C141.655 61.6817 140.982 59.7977 140.982 57.2998C140.982 56.2837 141.087 55.2676 141.298 54.2516L145.845 32.6598H154.94L150.392 54.2516C150.182 55.31 150.076 56.072 150.076 56.5377C150.076 57.9348 150.792 58.6334 152.224 58.6334C154.161 58.6334 155.95 57.4056 157.592 54.9501C159.276 52.4946 160.624 49.5733 161.634 46.1864C162.645 42.7995 163.15 39.8782 163.15 37.4227C163.066 37.6344 162.792 37.8037 162.329 37.9307C161.866 38.0154 161.466 38.0577 161.129 38.0577C160.413 38.0577 159.845 37.719 159.424 37.0417C159.045 36.3643 158.855 35.6234 158.855 34.819C158.855 33.8029 159.171 32.9773 159.803 32.3423C160.476 31.7072 161.466 31.3897 162.771 31.3897C164.161 31.3897 165.171 31.9189 165.803 32.9773C166.434 33.9934 166.75 35.3058 166.75 36.9146C166.75 40.725 166.098 44.8105 164.792 49.1711C163.487 53.4895 161.487 57.1728 158.792 60.221C156.098 63.2693 152.75 64.7934 148.75 64.7934Z" fill="#0DB04B"/>
<path d="M176.923 64.6664C173.807 64.6664 171.344 63.862 169.533 62.2532C167.723 60.6444 166.817 58.1042 166.817 54.6326C166.817 51.7113 167.386 48.5149 168.523 45.0433C169.659 41.5294 171.512 38.5023 174.08 35.9621C176.649 33.3795 179.933 32.0883 183.933 32.0883C188.901 32.0883 191.575 34.946 191.954 40.6614C192.88 40.4498 193.701 39.9417 194.417 39.1373C195.133 38.2906 195.807 37.338 196.438 36.2796H198.459C197.323 38.5658 196.312 40.3651 195.428 41.6775C194.544 42.9476 193.386 43.9849 191.954 44.7893C191.701 48.7689 190.88 52.2617 189.491 55.2676C188.144 58.2735 186.375 60.6021 184.186 62.2532C181.996 63.862 179.575 64.6664 176.923 64.6664ZM179.449 58.9509C181.007 58.9509 182.459 57.6808 183.807 55.1406C185.154 52.6004 186.08 49.4675 186.586 45.7419C185.575 45.3608 185.07 44.4083 185.07 42.8841C185.07 41.233 185.659 40.1322 186.838 39.5819C186.754 38.2271 186.523 37.2957 186.144 36.7876C185.807 36.2373 185.238 35.9621 184.438 35.9621C183.049 35.9621 181.723 36.9781 180.459 39.0103C179.196 41.0001 178.165 43.4345 177.365 46.3134C176.607 49.15 176.228 51.6478 176.228 53.807C176.228 55.8392 176.459 57.2151 176.923 57.9348C177.386 58.6122 178.228 58.9509 179.449 58.9509Z" fill="#0DB04B"/>
</svg>
